<?xml version="1.0" encoding="UTF-8"?><svg id="Calque_1" xmlns="http://www.w3.org/2000/svg" viewBox="0 0 1176.83 235.76"><defs><style>.cls-1{fill:#7da0c3;stroke-width:0px;}</style></defs><path class="cls-1" d="m244.48,203.9c.04-.75.09-1.2.09-1.66,0-6.36-.04-12.72.04-19.08.02-1.43-.48-1.74-1.79-1.72-6.01.06-12.03-.14-18.03.08-5.53.2-10.26-1.65-14.36-5.08-10.73-8.99-15.18-21.05-16.44-34.57-.07-.72.32-1.56.7-2.23,2.55-4.59,5.4-9.04,7.7-13.75,7.52-15.38,11.13-31.65,9.28-48.75-3.46-32.08-20.3-54.98-49.37-68.42-22.83-10.56-46.68-11.18-70.58-3.68-19.17,6.02-34.62,17.41-45.63,34.33-13.82,21.26-16.65,44.32-10.47,68.67,2.87,11.32,7.94,21.67,14.25,31.45.44.69.88,1.6.81,2.36-1.1,12.58-5.17,23.92-14.46,32.88-4.65,4.49-10.09,7.12-16.84,6.8-5.88-.28-11.79-.03-17.69-.08-1.26-.01-1.71.35-1.7,1.67.06,6.36.07,12.72,0,19.08-.02,1.44.5,1.74,1.81,1.73,6.24-.05,12.49-.05,18.73-.01,7.42.05,14.26-2.02,20.68-5.59,11.12-6.18,19.36-15.14,24.81-26.55,4.7-9.82,7.94-20.1,7.82-31.17-.04-3.67-.67-7.24-2.71-10.43-1.9-2.97-3.86-5.91-5.54-9-7.73-14.15-11.74-29.14-9.34-45.35,2.44-16.5,10.44-29.83,23.8-39.84,10.45-7.83,22.34-11.96,35.3-13.06,16.13-1.36,31.32,1.6,45.16,10.26,21.69,13.57,31.85,37.91,27.61,62.73-2.02,11.81-6.68,22.6-13.43,32.43-3.21,4.67-4.13,9.69-3.9,15.11.27,6.23,1.79,12.22,3.7,18.12,4.61,14.24,12.53,26.08,25.16,34.45,7.9,5.24,16.5,8.19,26.11,7.9,5.54-.17,11.1-.03,16.65-.03.62,0,1.25,0,2.05,0Zm-217.2,29.58c2.39.4,4.58.82,6.79,1.13,11.59,1.6,23.16,1.81,34.59-1.16,10.12-2.63,18.88-7.53,25.21-16.08,10.76-14.52,16.25-30.98,17.74-48.87.04-.49-.05-.99-.1-1.75h-22.62s-.09.13-.11.24c-.1.74-.19,1.49-.27,2.24-.99,9.47-3.52,18.51-8.12,26.86-1.88,3.42-4.05,6.77-6.57,9.74-3.57,4.2-8.67,5.79-13.93,6.71-8.47,1.49-16.93,1.1-25.33-.48-1.51-.28-2.05.07-2.34,1.53-.49,2.43-1.19,4.82-1.79,7.23-1.03,4.13-2.06,8.27-3.15,12.69Zm117.38-67.02v.36c-3.24,0-6.47.09-9.71-.04-1.72-.07-2.01.61-1.88,2.13,1.38,15.63,6.02,30.15,14.28,43.57,7.2,11.69,17.57,18.58,30.79,21.48,12.64,2.77,25.27,2.04,37.89-.23,1.25-.22,1.22-.87.97-1.86-1.57-6.16-3.14-12.32-4.6-18.51-.32-1.35-.84-1.59-2.14-1.34-6.33,1.22-12.72,1.58-19.16,1.27-11.09-.53-20.08-4.33-25.63-14.78-5.07-9.54-8.46-19.48-9.38-30.23-.13-1.53-.61-1.92-2.08-1.87-3.12.11-6.24.03-9.36.03Zm-51.62-43.26c6.66,0,12.06-5.23,11.99-11.6-.08-6.34-5.4-11.49-11.93-11.53-6.61-.04-11.99,5.13-12.02,11.56-.03,6.44,5.27,11.57,11.96,11.57Zm58.6,0c6.62.02,12.01-5.19,11.99-11.59-.02-6.29-5.4-11.52-11.9-11.55-6.64-.04-11.96,5.07-12.02,11.55-.05,6.46,5.21,11.58,11.92,11.6Z"/><path class="cls-1" d="m244.48,203.9c-.8,0-1.43,0-2.05,0-5.55,0-11.1-.14-16.65.03-9.62.29-18.21-2.66-26.11-7.9-12.63-8.38-20.55-20.21-25.16-34.45-1.91-5.9-3.43-11.88-3.7-18.12-.23-5.43.69-10.44,3.9-15.11,6.75-9.83,11.4-20.62,13.43-32.43,4.25-24.82-5.91-49.16-27.61-62.73-13.85-8.66-29.03-11.63-45.16-10.26-12.96,1.1-24.85,5.23-35.3,13.06-13.36,10.01-21.36,23.34-23.8,39.84-2.4,16.21,1.61,31.2,9.34,45.35,1.69,3.09,3.65,6.03,5.54,9,2.04,3.19,2.67,6.76,2.71,10.43.12,11.06-3.12,21.34-7.82,31.17-5.46,11.41-13.69,20.37-24.81,26.55-6.42,3.57-13.26,5.64-20.68,5.59-6.24-.04-12.49-.04-18.73.01-1.3.01-1.82-.29-1.81-1.73.08-6.36.07-12.72,0-19.08-.01-1.32.44-1.68,1.7-1.67,5.9.05,11.8-.2,17.69.08,6.75.32,12.19-2.32,16.84-6.8,9.29-8.96,13.35-20.3,14.46-32.88.07-.76-.37-1.67-.81-2.36-6.3-9.78-11.37-20.13-14.25-31.45-6.18-24.35-3.35-47.41,10.47-68.67,11.01-16.93,26.46-28.32,45.63-34.33,23.9-7.5,47.74-6.88,70.58,3.68,29.07,13.44,45.91,36.34,49.37,68.42,1.84,17.1-1.76,33.37-9.28,48.75-2.3,4.71-5.15,9.16-7.7,13.75-.37.67-.77,1.51-.7,2.23,1.26,13.52,5.71,25.58,16.44,34.57,4.1,3.44,8.83,5.28,14.36,5.08,6-.22,12.02-.02,18.03-.08,1.31-.01,1.81.29,1.79,1.72-.08,6.36-.03,12.72-.04,19.08,0,.45-.05.91-.09,1.66Z"/><path class="cls-1" d="m27.28,233.49c1.1-4.42,2.12-8.55,3.15-12.69.6-2.41,1.29-4.8,1.79-7.23.29-1.45.83-1.81,2.34-1.53,8.41,1.58,16.87,1.97,25.33.48,5.26-.93,10.36-2.52,13.93-6.71,2.52-2.97,4.69-6.31,6.57-9.74,4.6-8.35,7.13-17.39,8.12-26.86.08-.75.17-1.49.27-2.24.01-.11.09-.21.11-.24h22.62c.05.76.14,1.26.1,1.75-1.5,17.89-6.99,34.36-17.74,48.87-6.33,8.55-15.09,13.45-25.21,16.08-11.43,2.97-22.99,2.76-34.59,1.16-2.21-.3-4.4-.73-6.79-1.13Z"/><path class="cls-1" d="m144.66,166.46c3.12,0,6.24.08,9.36-.03,1.47-.05,1.95.34,2.08,1.87.93,10.75,4.31,20.69,9.38,30.23,5.56,10.45,14.54,14.25,25.63,14.78,6.44.31,12.83-.05,19.16-1.27,1.3-.25,1.82,0,2.14,1.34,1.47,6.19,3.03,12.35,4.6,18.51.25.98.28,1.63-.97,1.86-12.62,2.27-25.26,3-37.89.23-13.21-2.9-23.59-9.79-30.79-21.48-8.27-13.42-12.9-27.93-14.28-43.57-.13-1.52.16-2.2,1.88-2.13,3.23.12,6.47.04,9.7.04v-.36Z"/><path class="cls-1" d="m93.04,123.21c-6.69,0-12-5.14-11.96-11.57.03-6.43,5.42-11.61,12.02-11.56,6.53.04,11.85,5.19,11.93,11.53.08,6.37-5.33,11.61-11.99,11.6Z"/><path class="cls-1" d="m151.64,123.21c-6.71-.02-11.98-5.14-11.92-11.6.05-6.47,5.37-11.58,12.02-11.55,6.5.04,11.88,5.26,11.9,11.55.02,6.4-5.37,11.61-11.99,11.59Z"/><path class="cls-1" d="m333.17,160.87c-7.31-3.91-13.06-9.49-17.25-16.75-4.19-7.26-6.28-15.74-6.28-25.46s2.12-18.06,6.36-25.37c4.24-7.31,10.05-12.92,17.42-16.83,7.37-3.91,15.63-5.86,24.79-5.86s17.42,1.95,24.79,5.86c7.37,3.91,13.17,9.52,17.42,16.83,4.24,7.31,6.36,15.77,6.36,25.37s-2.15,18.06-6.45,25.37c-4.3,7.31-10.16,12.92-17.58,16.83-7.43,3.91-15.72,5.86-24.87,5.86s-17.39-1.95-24.7-5.86Zm38.69-24.95c3.85-4.02,5.78-9.77,5.78-17.25s-1.87-13.23-5.61-17.25c-3.74-4.02-8.35-6.03-13.82-6.03s-10.22,1.98-13.9,5.95c-3.68,3.96-5.53,9.74-5.53,17.33s1.81,13.23,5.44,17.25c3.63,4.02,8.18,6.03,13.65,6.03s10.13-2.01,13.98-6.03Z"/><path class="cls-1" d="m426.79,93.2c3.96-7.26,9.49-12.84,16.58-16.75,7.09-3.91,15.21-5.86,24.37-5.86,11.72,0,21.52,3.07,29.39,9.21,7.87,6.14,13.03,14.8,15.49,25.96h-30.48c-2.57-7.14-7.54-10.72-14.91-10.72-5.25,0-9.44,2.04-12.56,6.11-3.13,4.08-4.69,9.91-4.69,17.5s1.56,13.43,4.69,17.5c3.12,4.08,7.31,6.11,12.56,6.11,7.37,0,12.34-3.57,14.91-10.72h30.48c-2.46,10.94-7.65,19.54-15.58,25.79-7.93,6.25-17.7,9.38-29.31,9.38-9.16,0-17.28-1.95-24.37-5.86-7.09-3.91-12.62-9.49-16.58-16.75-3.96-7.26-5.95-15.74-5.95-25.46s1.98-18.2,5.95-25.46Z"/><path class="cls-1" d="m584.47,141.1v24.28h-14.57c-10.38,0-18.48-2.54-24.29-7.62-5.81-5.08-8.71-13.37-8.71-24.87v-37.18h-11.39v-23.78h11.39v-22.78h28.64v22.78h18.76v23.78h-18.76v37.52c0,2.79.67,4.8,2.01,6.03,1.34,1.23,3.57,1.84,6.7,1.84h10.22Z"/><path class="cls-1" d="m622.73,160.87c-7.31-3.91-13.06-9.49-17.25-16.75-4.19-7.26-6.28-15.74-6.28-25.46s2.12-18.06,6.36-25.37c4.24-7.31,10.05-12.92,17.42-16.83,7.37-3.91,15.63-5.86,24.79-5.86s17.42,1.95,24.79,5.86c7.37,3.91,13.17,9.52,17.42,16.83,4.24,7.31,6.36,15.77,6.36,25.37s-2.15,18.06-6.45,25.37c-4.3,7.31-10.16,12.92-17.58,16.83-7.43,3.91-15.72,5.86-24.87,5.86s-17.39-1.95-24.7-5.86Zm38.69-24.95c3.85-4.02,5.78-9.77,5.78-17.25s-1.87-13.23-5.61-17.25c-3.74-4.02-8.35-6.03-13.82-6.03s-10.22,1.98-13.9,5.95c-3.68,3.96-5.53,9.74-5.53,17.33s1.81,13.23,5.44,17.25c3.63,4.02,8.18,6.03,13.65,6.03s10.13-2.01,13.98-6.03Z"/><path class="cls-1" d="m863.07,81.48c6.87,7.03,10.3,16.81,10.3,29.31v54.6h-28.47v-50.75c0-6.03-1.59-10.69-4.77-13.98-3.18-3.29-7.57-4.94-13.15-4.94s-9.96,1.65-13.15,4.94c-3.18,3.29-4.77,7.96-4.77,13.98v50.75h-28.47v-50.75c0-6.03-1.59-10.69-4.77-13.98-3.18-3.29-7.57-4.94-13.15-4.94s-9.96,1.65-13.15,4.94c-3.18,3.29-4.77,7.96-4.77,13.98v50.75h-28.64v-93.45h28.64v11.72c2.9-3.91,6.7-7,11.39-9.29,4.69-2.29,9.99-3.43,15.91-3.43,7.03,0,13.32,1.51,18.84,4.52s9.85,7.31,12.98,12.9c3.24-5.13,7.65-9.32,13.23-12.56,5.58-3.24,11.67-4.86,18.26-4.86,11.61,0,20.85,3.52,27.72,10.55Z"/><path class="cls-1" d="m897.73,93.2c3.63-7.26,8.57-12.84,14.82-16.75,6.25-3.91,13.23-5.86,20.94-5.86,6.59,0,12.36,1.34,17.33,4.02,4.97,2.68,8.79,6.2,11.47,10.55v-13.23h28.64v93.45h-28.64v-13.23c-2.79,4.35-6.67,7.87-11.64,10.55-4.97,2.68-10.75,4.02-17.33,4.02-7.59,0-14.52-1.98-20.77-5.95-6.25-3.96-11.19-9.6-14.82-16.92-3.63-7.31-5.44-15.77-5.44-25.37s1.81-18.03,5.44-25.29Zm58.62,8.54c-3.96-4.13-8.79-6.2-14.49-6.2s-10.53,2.04-14.49,6.11c-3.96,4.08-5.95,9.69-5.95,16.83s1.98,12.81,5.95,17c3.96,4.19,8.79,6.28,14.49,6.28s10.52-2.06,14.49-6.2c3.96-4.13,5.95-9.77,5.95-16.92s-1.98-12.78-5.95-16.92Z"/><path class="cls-1" d="m1068.31,141.1v24.28h-14.57c-10.38,0-18.48-2.54-24.29-7.62-5.81-5.08-8.71-13.37-8.71-24.87v-37.18h-11.39v-23.78h11.39v-22.78h28.64v22.78h18.76v23.78h-18.76v37.52c0,2.79.67,4.8,2.01,6.03,1.34,1.23,3.57,1.84,6.7,1.84h10.22Z"/><path class="cls-1" d="m1176.33,125.53h-64.81c.44,5.81,2.32,10.24,5.61,13.31,3.29,3.07,7.34,4.61,12.14,4.61,7.14,0,12.11-3.01,14.91-9.04h30.48c-1.57,6.14-4.38,11.67-8.46,16.58-4.08,4.91-9.19,8.77-15.32,11.56-6.14,2.79-13.01,4.19-20.6,4.19-9.16,0-17.31-1.95-24.45-5.86-7.15-3.91-12.73-9.49-16.75-16.75-4.02-7.26-6.03-15.74-6.03-25.46s1.98-18.2,5.95-25.46c3.96-7.26,9.52-12.84,16.66-16.75,7.14-3.91,15.35-5.86,24.62-5.86s17.08,1.9,24.12,5.69c7.03,3.8,12.53,9.21,16.5,16.25,3.96,7.03,5.95,15.24,5.95,24.62,0,2.68-.17,5.47-.5,8.37Zm-28.81-15.91c0-4.91-1.67-8.82-5.02-11.72-3.35-2.9-7.54-4.35-12.56-4.35s-8.85,1.4-12.14,4.19c-3.29,2.79-5.33,6.76-6.11,11.89h35.84Z"/></svg>