<?xml version="1.0" encoding="UTF-8"?><svg id="uuid-8a5a36f1-ece9-45d4-aef4-43d59059daf3" xmlns="http://www.w3.org/2000/svg" viewBox="0 0 250 164"><path d="m12.74,140.61c.49-.02.97-.05,1.46-.05,72.27,0,144.55,0,216.82,0h1.41c.03.23.06.42.09.7-.29.02-.5.04-.72.05-.3,0-.6,0-.9,0-72.2,0-144.4,0-216.59,0-.52,0-1.05-.02-1.57-.03,0-.22,0-.45,0-.67Z" style="fill:#fff; stroke-width:0px;"/><path d="m12.74,117.93c2.32,0,4.64,0,6.97-.01.8,0,1.55.15,2.3.43,1.3.48,1.97,1.45,2.18,2.74.1.62.06,1.27.02,1.9-.05.69-.32,1.3-.85,1.78-.35.32-.72.62-1.11.96,1.13.63,1.36,1.72,1.48,2.86.11,1.08.18,2.16.28,3.45.11.09.34.28.6.51v.55c-.75.16-1.49.06-2.25.08-.35-.4-.56-.87-.6-1.41-.08-.93-.18-1.86-.23-2.79-.09-1.55-.78-2.27-2.3-2.29-1.38-.02-2.76,0-4.21,0v6.45c-.81.03-1.54.05-2.27.07,0-5.09,0-10.18,0-15.27Zm2.29,6.72c1.59,0,3.12.12,4.63-.03,1.63-.16,2.41-.87,2.33-2.53-.06-1.27-.84-2.08-2.12-2.12-1.05-.03-2.09,0-3.14,0-.55,0-1.1,0-1.7,0v4.69Z" style="fill:#fff; stroke-width:0px;"/><path d="m192.95,0c-.19.23-.36.48-.56.68-3.06,3.06-6.12,6.12-9.18,9.18-.18.18-.37.34-.67.6-.27-.26-.49-.48-.76-.74.36-.39.6-.66.86-.92,2.77-2.77,5.54-5.54,8.31-8.3.16-.16.28-.34.42-.51.52,0,1.05,0,1.57,0Z" style="fill:#fff; stroke-width:0px;"/><path d="m128.5,133.14h-2c-1.39-3.48-2.58-7.07-4.06-10.59v10.49c-.72.26-1.38.07-2.07.15-.07-.28-.16-.49-.16-.7,0-4.6,0-9.2,0-13.81,0-.22.06-.43.1-.71h2.8c1.43,3.9,2.88,7.84,4.38,11.93.19-.37.36-.65.47-.94,1.29-3.49,2.57-6.99,3.86-10.48.06-.17.15-.33.24-.53h2.63v15.17h-1.9c-.36-.31-.23-.71-.23-1.06-.01-2.73,0-5.46,0-8.19,0-.37,0-.74,0-1.1-.06-.01-.13-.03-.19-.04-1.28,3.44-2.56,6.89-3.86,10.42Z" style="fill:#fff; stroke-width:0px;"/><path d="m196.78,129.27v-11.28h2.17v15.14c-.74.1-1.48.04-2.35.04-1.2-1.86-2.43-3.77-3.66-5.67-1.23-1.9-2.46-3.8-3.86-5.66v11.23c-.75.19-1.41.1-2.05.08-.19-.98-.26-12.03-.1-15.11.75-.24,1.52-.08,2.34-.1,2.45,3.79,4.89,7.58,7.34,11.38l.17-.05Z" style="fill:#fff; stroke-width:0px;"/><path d="m221.02,117.95h2.36c2.44,3.78,4.9,7.59,7.5,11.63v-11.52c.69-.28,1.35-.07,1.98-.14.19,1.04.2,14.23,0,15.21h-2.19c-2.46-3.81-4.95-7.66-7.56-11.7v11.61c-.68.25-1.31.1-1.89.12-.06-.05-.09-.07-.12-.1-.02-.03-.05-.06-.05-.09-.02-.34-.04-.67-.04-1.01,0-4.64,0-9.27,0-14.02Z" style="fill:#fff; stroke-width:0px;"/><path d="m96.58,157.14c1.79,1.1,2.66,2.96,3.78,4.61.39.58.75,1.2,1.18,1.9-.82.22-1.58.05-2.34.12-.9-1.39-1.74-2.75-2.64-4.08-.44-.64-.95-1.24-1.48-1.82-.42-.46-.97-.68-1.6-.68-.96.01-1.93,0-2.99,0v6.5h-1.86c-.17-.82-.2-13.67-.01-14.81.39,0,.8,0,1.2,0,2.13,0,4.27-.02,6.4.03.7.02,1.45.1,2.07.37,1.25.55,1.95,1.6,2.08,2.97.07.74.1,1.48-.2,2.21-.55,1.29-1.6,1.92-2.86,2.3-.18.05-.36.09-.53.16-.06.02-.1.1-.19.21Zm-6.06-1.7c1.79,0,3.47.02,5.15-.01.43,0,.88-.14,1.29-.3,1.78-.7,1.83-3.02.68-3.96-.55-.45-1.16-.67-1.84-.68-1.23-.02-2.46-.02-3.69-.02-.51,0-1.02,0-1.58,0v4.97Z" style="fill:#fff; stroke-width:0px;"/><path d="m128.09,148.92h2c2.55,3.8,5.1,7.6,7.64,11.41.21-1.28.18-2.53.19-3.78,0-1.23,0-2.47,0-3.7,0-1.27,0-2.54,0-3.88.62-.13,1.2-.08,1.78-.04.22.85.31,11.68.11,14.77-.3.02-.62.06-.94.07-.34.01-.67,0-1.1,0-2.55-3.8-5.11-7.63-7.83-11.68-.18,1.19-.09,2.11-.1,3.01-.02.97,0,1.95,0,2.92s0,1.87,0,2.81c0,.93,0,1.86,0,2.83-.59.19-1.14.1-1.68.09-.17-.88-.23-12.64-.07-14.81Z" style="fill:#fff; stroke-width:0px;"/><path d="m71.84,124.27v1.95h-7.42c-.24.81-.29,3.15-.12,4.9,1.4.12,2.81.04,4.22.06,1.42.02,2.84,0,4.33,0v1.95h-10.64v-15.04c.74-.2,8.82-.25,10.3-.05v1.81c-.86.21-1.75.08-2.63.1-.94.02-1.87,0-2.81,0-.9,0-1.79,0-2.74,0-.2.73-.07,1.44-.1,2.13-.02.67,0,1.34,0,2.08.83.24,1.65.09,2.45.11.86.03,1.72,0,2.58,0,.82,0,1.64,0,2.58,0Z" style="fill:#fff; stroke-width:0px;"/><path d="m195.54,27.94c-.7-.28-1.57-.7-2.48-.97-.92-.27-1.89-.38-2.69-.53-5.52-5.51-10.96-10.96-16.38-16.37.6-.59,1.25-1.24,1.84-1.83,6.59,6.58,13.21,13.2,19.71,19.69Z" style="fill:#fff; stroke-width:0px;"/><path d="m165.74,54.91c-.66-.62-1.3-1.24-1.89-1.79,6.64-6.63,13.27-13.25,19.74-19.7-.84,1.46-1.47,3.26-1.46,5.14-5.51,5.5-10.96,10.94-16.39,16.36Z" style="fill:#fff; stroke-width:0px;"/><path d="m155.45,128.52c-.64,1.58-1.25,3.1-1.86,4.6h-2.28c2.03-5.11,4.01-10.13,6-15.16h2.23c1.99,5.01,3.98,10.02,6.01,15.11-.8.19-1.52.1-2.33.07-.63-1.54-1.26-3.08-1.89-4.62h-5.88Zm5.19-1.9c-.73-1.97-1.44-3.86-2.23-5.99-.79,2.13-1.51,4.05-2.23,5.99h4.46Z" style="fill:#fff; stroke-width:0px;"/><path d="m189,45.46c1.66.71,3.32,1.35,5.03,1.31,5.51,5.5,10.95,10.94,16.45,16.44-.28.29-.61.64-.95.98-.31.31-.63.62-.94.92-6.56-6.58-13.08-13.11-19.6-19.64Z" style="fill:#fff; stroke-width:0px;"/><path d="m179.6,148.89v1.63c-1.48,0-2.93,0-4.38,0-1.45,0-2.89-.03-4.3.02-.26.99-.26,3.63,0,4.64.85,0,1.73.02,2.62.02.9,0,1.8,0,2.69,0,.89,0,1.78,0,2.73,0v1.67c-.86.18-1.75.06-2.63.08-.93.02-1.87,0-2.81,0h-2.79c-.02,1.72,0,3.35,0,5.08.41.04.73.09,1.05.09,2.32,0,4.64,0,6.96,0h1.14v1.56h-10.93v-14.79c3.55-.06,7.08-.02,10.66-.03Z" style="fill:#fff; stroke-width:0px;"/><path d="m113.03,148.91h2.06c2.03,4.86,4.01,9.78,6.05,14.79h-2.2c-.57-1.45-1.15-2.93-1.73-4.42h-6.28c-.54,1.47-1.08,2.93-1.63,4.42h-1.89c.11-.82,4.97-13.59,5.63-14.79Zm.93,1.69c-.24.8-.41,1.43-.63,2.05-.53,1.47-1.09,2.92-1.62,4.39-.07.18-.04.39-.07.66.88,0,1.66,0,2.44,0,.81,0,1.62-.02,2.52-.03-.89-2.39-1.74-4.64-2.65-7.07Z" style="fill:#fff; stroke-width:0px;"/><path d="m160.79,152.88c-.63.16-1.23.32-1.87.49-.1-.19-.2-.34-.26-.52-.85-2.31-2.82-2.91-4.98-2.5-1.75.33-2.85,1.43-3.39,3.06-.63,1.89-.62,3.8-.03,5.71.76,2.47,3.36,3.92,6.1,2.99,1.01-.35,1.76-1.12,2.23-2.1.21-.43.37-.89.59-1.42.58.15,1.18.3,1.76.45-.37,2.9-2.87,4.86-5.28,4.94-1.46.05-2.91.06-4.26-.65-1.03-.54-1.84-1.3-2.37-2.31-1.4-2.68-1.67-5.47-.56-8.31.9-2.31,2.67-3.58,5.1-4.02,1.09-.2,2.15-.15,3.2.13,2.09.55,3.35,1.97,4.02,4.06Z" style="fill:#fff; stroke-width:0px;"/><path d="m171.39,12.55c.58-.5,1.22-1.06,1.95-1.7,5.11,5.1,10.32,10.31,15.64,15.62-1.03.33-1.96.63-2.78.89-4.93-4.92-9.82-9.81-14.81-14.81Z" style="fill:#fff; stroke-width:0px;"/><path d="m182.11,40.01c.3,1.02.57,1.94.85,2.91-4.85,4.82-9.74,9.69-14.72,14.64-.57-.55-1.18-1.14-1.78-1.72.57-.9,11.41-11.86,15.65-15.82Z" style="fill:#fff; stroke-width:0px;"/><path d="m212.99,60.65c-.48.49-1.07,1.1-1.63,1.67-5.22-5.24-10.42-10.45-15.64-15.68.87-.22,1.79-.44,2.7-.67,4.84,4.87,9.7,9.78,14.57,14.68Z" style="fill:#fff; stroke-width:0px;"/><path d="m170.47,13.45c4.88,4.88,9.69,9.69,14.54,14.53-.58.43-1.23.91-1.88,1.39-.76-.45-12.03-11.59-14.38-14.23.6-.59,1.19-1.17,1.73-1.7Z" style="fill:#fff; stroke-width:0px;"/><path d="m72.49,155.21h6.85c.24.59.14,1.13.1,1.78h-6.93v6.72h-1.86c-.17-.84-.23-12.77-.07-14.66.78-.19,8.47-.25,9.97-.06v1.52c-2.65.04-5.28-.01-8.03.03-.06,1.56-.01,3.04-.03,4.67Z" style="fill:#fff; stroke-width:0px;"/><path d="m183.45,43.85c.53.71,1.02,1.36,1.49,1.98-.64.93-13.43,13.68-14.2,14.17-.54-.54-1.08-1.09-1.62-1.64.47-.78,9.13-9.56,14.33-14.52Z" style="fill:#fff; stroke-width:0px;"/><path d="m94.8,119.94h-4.89c-.18-.67-.09-1.28-.07-2,3.95-.05,7.86-.01,11.82-.02v2.01h-4.7c0,1.16,0,2.23,0,3.3,0,1.12,0,2.24,0,3.36,0,1.08.01,2.17,0,3.25-.02,1.07.08,2.15-.07,3.27h-1.97s-.03-.03-.06-.05c-.02-.03-.05-.06-.05-.09,0-4.29,0-8.59,0-13.03Z" style="fill:#fff; stroke-width:0px;"/><path d="m199.47,45.45c.68-.56,1.31-1.08,1.94-1.59.7.45,13.32,13.01,14.19,14.11-.56.53-1.12,1.07-1.74,1.65-.14-.13-.39-.34-.62-.56-3.63-3.62-7.25-7.25-10.88-10.87-.92-.92-1.89-1.79-2.9-2.75Z" style="fill:#fff; stroke-width:0px;"/><path d="m160.95,55.91c.09.06.18.12.26.17,0,.09.03.19,0,.23-.22.25-.44.5-.68.74-11.22,11.22-22.44,22.44-33.65,33.65-2,2-4.01,4-6.01,6.01-4.32,4.34-8.63,8.69-12.94,13.04-.16.16-.28.35-.38.48h-.98c18.11-18.09,36.21-36.17,54.39-54.33Z" style="fill:#fff; stroke-width:0px;"/><path d="m166.31,17.65c.66-.62,1.2-1.13,1.68-1.59,4.73,4.73,9.47,9.48,14.23,14.23-.46.43-1,.94-1.6,1.5-.21-.19-.48-.43-.74-.68-3.97-3.96-7.93-7.93-11.89-11.89-.52-.52-1.08-1.01-1.68-1.58Z" style="fill:#fff; stroke-width:0px;"/><path d="m173.21,62.41c-.52-.51-1.04-1.03-1.52-1.49,4.7-4.69,9.4-9.37,14.19-14.15.41.41.93.93,1.43,1.44-.44.74-13.1,13.46-14.1,14.19Z" style="fill:#fff; stroke-width:0px;"/><path d="m202.42,42.96c.45-.5.9-.99,1.33-1.46.9.56,9.14,8.69,14.32,14.11-.26.28-.52.57-.79.85-.26.26-.53.51-.68.65-4.75-4.74-9.45-9.43-14.17-14.14Z" style="fill:#fff; stroke-width:0px;"/><path d="m179.78,32.79c-.49.41-.99.84-1.55,1.31-.15-.14-.38-.32-.58-.52-1.43-1.43-2.86-2.86-4.29-4.28-2.93-2.89-5.86-5.78-8.79-8.67-.18-.18-.36-.38-.6-.64.44-.56.97-1.02,1.44-1.49.07,0,.11-.02.15-.01.04,0,.08,0,.1.03,4.64,4.62,9.27,9.25,13.91,13.88.08.07.11.19.22.4Z" style="fill:#fff; stroke-width:0px;"/><path d="m188.21,49.19c.5.55.95,1.04,1.36,1.48-4.64,4.63-9.38,9.35-14.12,14.09-.38-.38-.85-.86-1.32-1.33.48-.78,11.43-11.84,14.09-14.24Z" style="fill:#fff; stroke-width:0px;"/><path d="m220.42,53.26c-.52.52-1,.98-1.4,1.39-4.7-4.73-9.4-9.44-14.17-14.24.38-.39.84-.86,1.29-1.32.8.54,12.79,12.43,14.29,14.17Z" style="fill:#fff; stroke-width:0px;"/><path d="m198.67,26.55c-.5-.51-1.01-1.02-1.45-1.47,4.5-4.48,8.92-8.88,13.35-13.3.15.31.35.7.51,1.11.13.34.22.71.3.97-4.23,4.23-8.41,8.4-12.71,12.69Z" style="fill:#fff; stroke-width:0px;"/><path d="m196.14,24.17c-.46-.52-.9-1.01-1.29-1.45,4.65-4.64,9.27-9.24,13.97-13.92.53.31.66,1.11,1.09,1.6-4.55,4.55-9.07,9.07-13.77,13.77Z" style="fill:#fff; stroke-width:0px;"/><path d="m201.04,29.34c-.46-.58-.95-1.18-1.44-1.79.38-.6,11.22-11.54,12.15-12.25.36.95.57,1.91.54,2.84-3.75,3.74-7.46,7.43-11.25,11.21Z" style="fill:#fff; stroke-width:0px;"/><path d="m177.26,35.27c-.34.34-.79.79-1.18,1.19-4.76-4.75-9.5-9.5-14.31-14.3.16-.17.38-.41.61-.64.21-.21.43-.4.57-.53,4.79,4.79,9.55,9.54,14.31,14.29Z" style="fill:#fff; stroke-width:0px;"/><path d="m207.21,38.07c.46-.47.9-.92,1.33-1.37,4.73,4.76,9.45,9.5,14.15,14.23-.39.4-.85.88-1.31,1.35-4.72-4.73-9.42-9.44-14.17-14.21Z" style="fill:#fff; stroke-width:0px;"/><path d="m190.77,51.79c.39.37.82.78,1.42,1.35-4.74,4.7-9.46,9.37-14.23,14.1-.32-.29-.57-.51-.8-.74-.21-.21-.4-.43-.54-.58,4.74-4.73,9.44-9.42,14.16-14.13Z" style="fill:#fff; stroke-width:0px;"/><path d="m206.62,6.07c.47.51.9.97,1.29,1.39-4.71,4.7-9.39,9.36-14.15,14.11-.38-.35-.84-.76-1.29-1.17.52-.86,9.64-10.09,14.14-14.33Z" style="fill:#fff; stroke-width:0px;"/><path d="m125.97,110.25h-.7c14.99-14.97,29.99-29.95,45.06-45,0,0,.15.1.38.26-14.93,14.93-29.83,29.82-44.75,44.74Z" style="fill:#fff; stroke-width:0px;"/><path d="m212.53,19.72c-.1,1.26-.2,2.52-.29,3.66-3.33,3.32-6.58,6.56-9.89,9.86-.23-.94-.45-1.88-.65-2.72,3.63-3.62,7.2-7.18,10.83-10.8Z" style="fill:#fff; stroke-width:0px;"/><path d="m191.5,19.42c-.48-.51-.86-.91-1.23-1.31.45-.79,11.25-11.73,13.84-14.02q.83.36,1.5,1.2c-4.67,4.68-9.35,9.36-14.11,14.13Z" style="fill:#fff; stroke-width:0px;"/><path d="m175.05,37.47c-.51.44-.94.8-1.38,1.19-.66-.44-12.18-11.85-14.24-14.16.4-.41.8-.83,1.29-1.35,4.76,4.76,9.5,9.49,14.33,14.33Z" style="fill:#fff; stroke-width:0px;"/><path d="m193.06,54.05c.38.39.76.78,1.16,1.19-.45.68-13.11,13.38-14.12,14.14-.4-.41-.8-.83-1.18-1.22,4.69-4.69,9.4-9.38,14.14-14.11Z" style="fill:#fff; stroke-width:0px;"/><path d="m157.26,26.77c.4-.43.75-.8,1.16-1.23,4.78,4.77,9.53,9.51,14.21,14.17-.37.47-.69.88-.99,1.26-.89-.58-12.07-11.64-14.37-14.19Z" style="fill:#fff; stroke-width:0px;"/><path d="m224.78,48.82c-.3.32-.65.69-.95,1.01-4.71-4.71-9.38-9.4-14.13-14.16.27-.25.67-.62,1-.93,4.7,4.7,9.37,9.37,14.07,14.08Z" style="fill:#fff; stroke-width:0px;"/><path d="m195.37,56.13c.35.49.62.88.97,1.38,0-.13,0-.09,0-.06,0,.04,0,.08-.02.11-.14.17-.28.35-.44.51-4.51,4.52-9.02,9.04-13.57,13.59-.41-.42-.76-.78-1.19-1.23,4.75-4.76,9.43-9.46,14.26-14.3Z" style="fill:#fff; stroke-width:0px;"/><path d="m200.95,40.14c.92-1.74,1.43-3.5,1.48-5.33,3.07-3.06,6.1-6.09,9.19-9.17-.05.3-.07.59-.15.86-.74,2.33-1.86,4.47-3.44,6.34-1.08,1.28-2.27,2.48-3.44,3.68-1.19,1.23-2.42,2.41-3.64,3.62Z" style="fill:#fff; stroke-width:0px;"/><path d="m42.12,133.13h-1.96c-.25-.89-.34-11.4-.14-15.09.66-.23,1.35-.1,2.1-.1v15.19Z" style="fill:#fff; stroke-width:0px;"/><path d="m227.12,46.48c-.44.4-.8.72-1.07.96-4.53-4.51-9.12-9.08-13.76-13.71.37-.24.76-.49,1.09-.71.14.01.17.01.21.02.04,0,.08,0,.11.03,4.35,4.33,8.7,8.65,13.04,12.98.13.13.24.27.38.43Z" style="fill:#fff; stroke-width:0px;"/><path d="m179.62,74.58c.06.04.16.09.27.16-.03.11-.02.24-.09.31-1,1.01-2,2.02-3.01,3.02-10.61,10.61-21.22,21.22-31.83,31.83-.11.11-.19.23-.29.34h-.76c11.87-11.86,23.75-23.72,35.7-35.67Z" style="fill:#fff; stroke-width:0px;"/><path d="m184.38,73.73c-.35-.37-.65-.68-.89-.94,4.75-4.74,9.43-9.41,14.16-14.14.07.05.25.17.41.31.17.15.31.32.46.48-.43.74-11.26,11.68-14.14,14.29Z" style="fill:#fff; stroke-width:0px;"/><path d="m188.99,16.93c-.29-.34-.6-.7-.88-1.02,4.49-4.48,8.98-8.96,13.56-13.53.31.18.74.44,1.17.69-.53.82-12.92,13.22-13.86,13.86Z" style="fill:#fff; stroke-width:0px;"/><path d="m198.48,1.05c.53.2.98.37,1.37.52.03.12.05.15.05.19,0,.04,0,.09-.02.11-4.31,4.26-8.63,8.51-13.03,12.84-.25-.25-.6-.59-1.02-1,4.25-4.25,8.41-8.41,12.65-12.65Z" style="fill:#fff; stroke-width:0px;"/><path d="m229.17,44.51c-.2.22-.49.56-.85.97-4.44-4.42-8.79-8.77-13.24-13.2.56-.25.99-.45,1.31-.59,4.29,4.31,8.51,8.54,12.79,12.82Z" style="fill:#fff; stroke-width:0px;"/><path d="m155.08,28.77c.38-.36.67-.64.95-.91.81.52,12.55,12.15,14.39,14.24-.29.31-.59.62-.98,1.02-4.78-4.74-9.5-9.49-14.37-14.35Z" style="fill:#fff; stroke-width:0px;"/><path d="m168.19,44.32c-.2.21-.45.48-.73.79-.19-.16-.36-.29-.51-.43-4.36-4.31-8.71-8.62-13.06-12.93-.26-.26-.51-.54-.81-.87.3-.34.57-.63.82-.91,4.77,4.79,9.51,9.54,14.3,14.35Z" style="fill:#fff; stroke-width:0px;"/><path d="m186.41,75.87c-.3-.41-.52-.72-.7-.97,4.67-4.67,9.4-9.39,14.12-14.11.24.2.52.44.89.76-4.76,4.8-9.47,9.47-14.31,14.32Z" style="fill:#fff; stroke-width:0px;"/><path d="m202.01,62.83c.17.24.36.5.5.71-4.7,4.69-9.4,9.38-14.16,14.14-.17-.18-.41-.43-.6-.63,4.75-4.74,9.43-9.4,14.26-14.22Z" style="fill:#fff; stroke-width:0px;"/><path d="m188.91,83.93c.19.1.28.16.4.22-.03.11-.02.24-.08.31-.57.59-1.15,1.17-1.74,1.76-7.8,7.8-15.6,15.61-23.41,23.41-.21.21-.43.41-.66.63h-.72c.05-.12.07-.21.12-.27,2.56-2.57,5.12-5.14,7.69-7.71,5.85-5.85,11.69-11.69,17.54-17.53.26-.26.54-.51.86-.82Z" style="fill:#fff; stroke-width:0px;"/><path d="m151.23,32.73c.16-.21.34-.44.46-.59,4.83,4.83,9.58,9.57,14.39,14.37-.14.11-.39.32-.6.51-4.73-4.74-9.46-9.49-14.24-14.29Z" style="fill:#fff; stroke-width:0px;"/><path d="m231.34,42.4c-.28.26-.55.5-.81.74-1.09-.81-11.49-11.27-11.95-12.03.44-.09.86-.17,1.24-.24,3.83,3.83,7.63,7.64,11.52,11.53Z" style="fill:#fff; stroke-width:0px;"/><path d="m184.57,12.49c-.12-.15-.35-.43-.59-.71.4-.72,8.91-9.37,11.31-11.48.43.08.9.16,1.27.23-3.95,3.94-7.93,7.91-12,11.97Z" style="fill:#fff; stroke-width:0px;"/><path d="m149.07,34.71c.24-.2.46-.38.77-.64,4.78,4.78,9.53,9.53,14.32,14.31-.24.23-.45.42-.74.7-4.76-4.77-9.5-9.51-14.35-14.37Z" style="fill:#fff; stroke-width:0px;"/><path d="m190.39,79.75c-.26-.28-.43-.47-.55-.6,4.75-4.74,9.45-9.43,14.19-14.18.12.11.3.28.58.53-4.72,4.75-9.45,9.46-14.23,14.24Z" style="fill:#fff; stroke-width:0px;"/><path d="m162,50.55c-.09.09-.23.21-.34.32-4.75-4.76-9.49-9.51-14.29-14.32.08-.09.22-.23.31-.33,4.78,4.79,9.53,9.53,14.32,14.33Z" style="fill:#fff; stroke-width:0px;"/><path d="m205.94,66.94c.09.07.26.2.37.28-4.76,4.75-9.48,9.47-14.22,14.21-.11-.12-.26-.28-.31-.34,4.72-4.72,9.42-9.42,14.16-14.16Z" style="fill:#fff; stroke-width:0px;"/><path d="m222.24,30.59h1.23c3.27,3.28,6.51,6.53,9.8,9.83-.14.15-.38.41-.57.6-3.5-3.49-6.95-6.93-10.46-10.43Z" style="fill:#fff; stroke-width:0px;"/><path d="m226.83,31.01c.59-.05,1.19.07,1.67.55,2.25,2.23,4.5,4.46,6.79,6.74-.22.28-.39.5-.52.66-2.67-2.68-5.31-5.32-7.94-7.95Z" style="fill:#fff; stroke-width:0px;"/><path d="m179.9,7.8c2.4-2.39,4.69-4.68,7.05-7.04.4-.09.9-.19,1.45-.31-2.65,2.64-5.23,5.21-7.87,7.85-.15-.12-.37-.29-.63-.49Z" style="fill:#fff; stroke-width:0px;"/><path d="m233.13,33.26c1.49.83,2.81,1.89,4.13,3.09-.2.25-.37.47-.53.66-1.26-1.22-2.47-2.4-3.69-3.59-.01-.01.05-.1.09-.16Z" style="fill:#fff; stroke-width:0px;"/><path d="m178.6,6.4c-.21-.19-.35-.3-.45-.4.01-.55,2.12-2.23,3.7-2.91-1.11,1.23-2.15,2.19-3.24,3.31Z" style="fill:#fff; stroke-width:0px;"/></svg>