<?xml version="1.0" encoding="UTF-8"?><svg id="uuid-cf571ba8-e325-47fc-a23c-108df17a3ef8" xmlns="http://www.w3.org/2000/svg" viewBox="0 0 250 164"><path d="m9.7,117.27h7.69c1.61,0,2.81.83,3.61,2.5l.15.77v1.89l-.15.16h-11.54c-1.97,0-3.27,1.07-3.89,3.21l-.18,2.67v5.76c0,3.1.73,4.92,2.18,5.44.74.35,1.81.52,3.18.52h6.56c2.57.28,3.86,1.54,3.86,3.78v1.37l-.15.18h-11.12c-4.34,0-7.32-1.83-8.96-5.51-.58-1.49-.88-3.11-.88-4.84v-8.08c0-4.15,1.78-7.14,5.33-8.97,1.32-.57,2.76-.85,4.32-.85Z" style="fill:#fff; stroke-width:0px;"/><path d="m39.92,118.11l.69.09.59-.09c3.83,0,6.69,1.49,8.6,4.47.91,1.51,1.35,3.71,1.35,6.62v6.77c0,4.95-2.06,8.24-6.16,9.86-1.08.35-2.08.52-3.01.52h-2.59c-3.91,0-6.74-1.83-8.5-5.49-.57-1.38-.85-2.7-.85-3.96v-8.94c0-4.58,2.06-7.66,6.19-9.26.91-.29,2.13-.49,3.69-.61Zm-4.46,9.71v8.76c0,2.96,1.46,4.45,4.37,4.45h1.47c2.11,0,3.48-.84,4.13-2.49.22-.79.34-1.68.34-2.66v-7.64c0-2.3-.74-3.73-2.24-4.29-.88-.29-1.72-.43-2.58-.43h-.43c-2.4,0-3.93.62-4.56,1.87-.33.72-.5,1.53-.5,2.42Z" style="fill:#fff; stroke-width:0px;"/><path d="m69.36,118.11l1.63.09h1.56c2.21,0,4.28.88,6.19,2.66,1.84-1.83,4.18-2.75,7.01-2.75,3.53,0,5.88.49,7.06,1.46,2.85,1.99,4.29,4.79,4.29,8.4v18.2l-.16.18h-.69c-2.14,0-3.5-.79-4.1-2.39-.26-.59-.37-1.25-.37-1.99v-13.06c0-2.47-.66-4.1-1.97-4.9-.6-.29-1.51-.48-2.76-.59-2.51,0-4.12.46-4.82,1.38-.57.93-.85,2.04-.85,3.34v18.02l-.17.18h-1.04c-2.21,0-3.58-1.08-4.1-3.25l-.09-1.22v-14.07c0-2-.82-3.35-2.48-4.04l-1.99-.34c-2.85,0-4.51.51-4.97,1.53-.63.63-.95,2.08-.95,4.38v16.83l-.18.18h-.67c-2.07,0-3.45-.79-4.14-2.39-.22-.72-.34-1.33-.34-1.81v-23.8l.17-.15h1.55c1.02,0,2,.4,2.91,1.19,1.3-.73,2.78-1.16,4.47-1.28Z" style="fill:#fff; stroke-width:0px;"/><path d="m106.36,105.69h1.49c1.83,0,3.07.95,3.71,2.82l.08.79v19.35l.16.18h5.13c2.34,0,3.87-.64,4.56-1.94.53-1.11.79-2.49.79-4.13v-1.4c0-1.86,1-3.13,3-3.8l1.75-.18h.61l.18.18v4.77c0,4.29-.81,7.23-2.46,8.81l-.45.51c1.24,1.1,2.16,2.93,2.73,5.47l.18,3.77v5.29l-.18.18h-.88c-2.3,0-3.77-1-4.4-3l-.09-.95v-2.64c0-2.47-.64-4.06-1.92-4.76-.9-.41-1.9-.61-3-.61h-5.72v11.7l-.17.18h-1.5c-1.77,0-2.97-.94-3.6-2.82l-.18-1.22v-36.36l.18-.18Z" style="fill:#fff; stroke-width:0px;"/><path d="m193.1,118.11h10.48l.18.17v27.89l-.18.18h-1.1c-1.38,0-2.48-.46-3.28-1.38-1.38.92-3.23,1.38-5.58,1.38h-10.73l-.18-.18v-18.54c0-4.93,2.44-8.03,7.3-9.28.87-.16,1.88-.24,3.1-.24Zm-4.97,9.61v13.31h5.31c3.32,0,4.98-1.66,4.98-4.97v-12.54h-6.27c-1.79,0-3.04.77-3.78,2.3-.16.72-.24,1.35-.24,1.9Z" style="fill:#fff; stroke-width:0px;"/><path d="m213.04,105.69h.96c2.08,0,3.45.88,4.09,2.62l.18,1.31v8.06h3.6c2.73.33,4.1,1.63,4.1,3.93v1.31l-.18.18h-7.52v13.12c0,2.08.73,3.51,2.19,4.29.9.35,2.03.52,3.41.52,1.04.32,1.82.89,2.35,1.74.43.72.63,1.48.63,2.28v1.13l-.18.18h-3.49c-4.73,0-7.94-1.94-9.62-5.85-.35-.82-.61-2.03-.78-3.59l.08-2.19v-28.86l.18-.18Z" style="fill:#fff; stroke-width:0px;"/><path d="m236.14,105.69h.95c2.1,0,3.46.88,4.11,2.62l.18,1.31v8.06h3.59c2.74.33,4.1,1.63,4.1,3.93v1.31l-.18.18h-7.51v13.12c0,2.08.72,3.51,2.19,4.29.89.35,2.03.52,3.41.52,1.04.32,1.82.89,2.34,1.74.43.72.63,1.48.63,2.28v1.13l-.17.18h-3.5c-4.72,0-7.93-1.94-9.62-5.85-.35-.82-.6-2.03-.78-3.59l.08-2.19v-28.86l.18-.18Z" style="fill:#fff; stroke-width:0px;"/><path d="m173.54,118.11l.09.09v17.86c0,5.64-2.64,9.02-7.91,10.12l-2.06.18h-1.53c-2.63,0-4.91-.94-6.87-2.82-2.2,1.88-4.49,2.82-6.88,2.82h-.93c-5,0-8.3-1.89-9.9-5.66-.34-1.11-.6-2.38-.76-3.78l.09-3.43v-15.13l.15-.15h1.47c2.01,0,3.25,1.03,3.72,3.08l.06,1.02v14.7c0,2.16,1.17,3.47,3.52,3.93l1.04.09h.87c3.26,0,4.9-1.55,4.9-4.63v-15.54l.15-.18h1.47c1.77,0,2.97.97,3.61,2.92l.07.79v11.24c0,2.66.63,4.23,1.89,4.73.81.45,1.81.68,3,.68h.18c3.54,0,5.3-1.52,5.3-4.54v-14.53c0-2.58,1.75-3.85,5.24-3.85Z" style="fill:#fff; stroke-width:0px;"/><path d="m3.84,160.81c.49,0,.93-.13,1.29-.41.38-.28.56-.67.56-1.16h.65l.02.04c.01.62-.22,1.12-.74,1.54-.51.42-1.11.63-1.78.63-.91,0-1.6-.31-2.1-.93-.49-.63-.74-1.42-.74-2.4v-.25c0-.97.25-1.76.75-2.39.49-.62,1.19-.93,2.09-.93.73,0,1.33.21,1.82.64.49.44.71,1,.7,1.7v.04h-.67c0-.53-.18-.96-.54-1.27-.36-.32-.79-.47-1.31-.47-.71,0-1.24.25-1.58.76-.36.5-.52,1.15-.52,1.93v.25c0,.79.16,1.44.52,1.94.34.5.87.76,1.58.76Z" style="fill:#fff; stroke-width:0px;"/><path d="m13.77,155.3l-.55-.04c-.46,0-.83.13-1.14.39-.3.26-.51.62-.63,1.07v4.59h-.74v-6.65h.65l.09,1.11v.07c.19-.41.45-.73.76-.95.34-.24.72-.35,1.17-.35.08,0,.17,0,.26.02.09.01.16.04.22.05l-.1.68Z" style="fill:#fff; stroke-width:0px;"/><path d="m20.17,161.44c-.83,0-1.52-.31-2.07-.93-.56-.62-.84-1.39-.84-2.33v-.34c0-.95.28-1.74.82-2.37.55-.63,1.21-.94,1.98-.94.82,0,1.46.26,1.92.77.47.52.7,1.21.7,2.07v.62h-4.69v.18c0,.75.2,1.38.6,1.88.39.49.92.75,1.56.75.47,0,.85-.07,1.18-.19.33-.13.6-.31.82-.55l.32.5c-.25.27-.56.47-.95.63-.39.16-.85.23-1.38.23Zm-.09-6.27c-.54,0-1,.2-1.37.62-.36.41-.58.93-.64,1.55l.02.04h3.89v-.19c0-.58-.17-1.06-.51-1.44-.34-.39-.79-.58-1.39-.58Z" style="fill:#fff; stroke-width:0px;"/><path d="m31.19,161.32c-.06-.23-.09-.42-.11-.59-.02-.16-.03-.33-.03-.49-.24.35-.58.64-.98.87-.41.23-.88.35-1.39.35-.64,0-1.14-.18-1.5-.52-.36-.35-.54-.8-.54-1.38,0-.62.26-1.11.79-1.48.53-.37,1.24-.55,2.14-.55h1.48v-.82c0-.47-.15-.85-.47-1.12-.3-.27-.72-.4-1.27-.4-.52,0-.94.12-1.27.38-.34.26-.51.57-.51.95h-.68v-.04c-.02-.5.2-.94.67-1.33.48-.39,1.08-.59,1.82-.59s1.32.19,1.76.56c.46.37.67.91.67,1.6v3.27c0,.23.02.46.04.68.03.21.07.44.14.66h-.76Zm-2.42-.52c.53,0,1-.13,1.4-.37.4-.25.69-.57.88-.95v-1.39h-1.49c-.66,0-1.19.14-1.6.42-.4.29-.6.64-.6,1.06,0,.36.13.65.38.89.24.22.59.34,1.03.34Z" style="fill:#fff; stroke-width:0px;"/><path d="m37.69,152.96v1.71h1.47v.6h-1.47v4.33c0,.44.08.75.23.93.16.18.38.28.63.28.13,0,.24,0,.36-.02.11,0,.23-.03.39-.06l.11.55c-.12.06-.27.1-.45.12-.18.03-.36.05-.53.05-.47,0-.82-.15-1.09-.44-.26-.3-.4-.76-.4-1.4v-4.33h-1.15v-.6h1.15v-1.71h.74Z" style="fill:#fff; stroke-width:0px;"/><path d="m44.35,152.77h-.73v-1.04h.73v1.04Zm0,8.55h-.73v-6.65h.73v6.65Z" style="fill:#fff; stroke-width:0px;"/><path d="m51.08,159.64l.22.78h.02l.24-.78,1.8-4.97h.76l-2.52,6.65h-.59l-2.53-6.65h.77l1.82,4.97Z" style="fill:#fff; stroke-width:0px;"/><path d="m60.57,161.44c-.82,0-1.53-.31-2.08-.93-.54-.62-.82-1.39-.82-2.33v-.34c0-.95.28-1.74.82-2.37.54-.63,1.21-.94,1.98-.94.82,0,1.46.26,1.92.77.46.52.7,1.21.7,2.07v.62h-4.7v.18c0,.75.2,1.38.6,1.88.4.49.93.75,1.57.75.46,0,.86-.07,1.17-.19.33-.13.6-.31.82-.55l.32.5c-.24.27-.56.47-.94.63-.4.16-.85.23-1.38.23Zm-.09-6.27c-.55,0-1,.2-1.37.62-.37.41-.58.93-.64,1.55v.04h3.91v-.19c0-.58-.17-1.06-.52-1.44-.34-.39-.79-.58-1.38-.58Z" style="fill:#fff; stroke-width:0px;"/><path d="m78.59,158.17c0,1-.23,1.79-.68,2.38-.46.6-1.07.89-1.86.89-.47,0-.88-.09-1.22-.27-.36-.17-.64-.43-.85-.75v3.45h-.74v-9.2h.61l.1,1.03c.22-.37.51-.65.85-.85.35-.2.77-.3,1.24-.3.79,0,1.42.32,1.87.96.45.64.68,1.49.68,2.54v.13Zm-.74-.14c0-.84-.17-1.53-.51-2.07-.34-.53-.82-.79-1.47-.79-.51,0-.91.12-1.21.35-.31.24-.54.55-.69.92v3.21c.16.37.41.65.72.86.32.21.71.31,1.19.31.64,0,1.12-.24,1.46-.72.34-.48.51-1.12.51-1.93v-.13Z" style="fill:#fff; stroke-width:0px;"/><path d="m86.1,155.3l-.55-.04c-.46,0-.84.13-1.14.39-.3.26-.51.62-.63,1.07v4.59h-.74v-6.65h.64l.1,1.11v.07c.18-.41.45-.73.76-.95.33-.24.71-.35,1.16-.35.09,0,.18,0,.27.02.09.01.16.04.22.05l-.1.68Z" style="fill:#fff; stroke-width:0px;"/><path d="m90.95,152.77h-.73v-1.04h.73v1.04Zm0,8.55h-.73v-6.65h.73v6.65Z" style="fill:#fff; stroke-width:0px;"/><path d="m96.44,154.67l.06,1.15c.22-.4.51-.72.87-.94.37-.22.79-.34,1.28-.34.73,0,1.28.22,1.66.66.38.44.56,1.14.56,2.07v4.05h-.74v-4.05c0-.76-.13-1.3-.42-1.62-.3-.32-.69-.47-1.21-.47s-.95.13-1.27.4c-.31.28-.56.64-.7,1.08v4.66h-.73v-6.65h.65Z" style="fill:#fff; stroke-width:0px;"/><path d="m106.76,152.96v1.71h1.47v.6h-1.47v4.33c0,.44.07.75.23.93.16.18.38.28.63.28.12,0,.23,0,.35-.02.11,0,.24-.03.39-.06l.11.55c-.12.06-.26.1-.45.12-.17.03-.35.05-.53.05-.46,0-.82-.15-1.09-.44-.25-.3-.39-.76-.39-1.4v-4.33h-1.15v-.6h1.15v-1.71h.74Z" style="fill:#fff; stroke-width:0px;"/><path d="m119.87,156.43c-.34-.41-.58-.78-.74-1.13-.15-.34-.24-.68-.24-1.04,0-.65.18-1.14.55-1.5.37-.35.87-.53,1.51-.53.59,0,1.06.17,1.41.5.34.34.52.75.52,1.25,0,.37-.1.69-.28.95-.17.26-.45.53-.79.8l-.98.75,2.53,2.96c.2-.3.36-.62.46-.98.11-.36.17-.74.17-1.16h.67c0,.52-.07,1.01-.21,1.45-.15.44-.38.84-.66,1.19l1.14,1.33v.04h-.85l-.74-.87c-.35.32-.73.57-1.15.74-.41.17-.85.26-1.33.26-.87,0-1.54-.22-2.04-.66-.5-.44-.75-1.02-.75-1.75,0-.49.15-.94.45-1.33.31-.4.72-.79,1.29-1.21l.09-.06Zm.96,4.38c.38,0,.74-.07,1.1-.22.37-.15.68-.36.97-.63l-2.53-2.96s-.04-.04-.06-.05c-.01-.02-.03-.04-.03-.05l-.28.22c-.48.38-.8.73-.97,1.04-.15.31-.25.6-.25.85,0,.51.18.94.54,1.27.35.35.85.51,1.52.51Zm-1.2-6.56c0,.27.06.55.19.84.13.3.33.61.59.93l1.1-.81c.23-.18.4-.38.5-.58.1-.2.15-.41.15-.65,0-.32-.11-.6-.31-.8-.22-.21-.52-.32-.91-.32-.42,0-.74.14-.98.41-.22.25-.34.59-.34.98Z" style="fill:#fff; stroke-width:0px;"/><path d="m134.58,158.04c0-1.05.22-1.9.67-2.54.45-.64,1.08-.96,1.87-.96.46,0,.87.1,1.2.3.35.19.63.47.85.84v-3.95h.73v9.59h-.65l-.06-.97c-.22.35-.51.62-.85.82-.36.19-.76.28-1.23.28-.79,0-1.41-.3-1.86-.89-.45-.59-.67-1.38-.67-2.38v-.13Zm.74.13c0,.81.15,1.45.47,1.93.33.47.81.71,1.46.71.48,0,.88-.11,1.19-.32.31-.22.56-.51.74-.89v-3.14c-.16-.39-.41-.69-.71-.93-.31-.24-.71-.36-1.2-.36-.65,0-1.14.26-1.47.79-.33.53-.48,1.23-.48,2.07v.13Z" style="fill:#fff; stroke-width:0px;"/><path d="m145.49,152.77h-.72v-1.04h.72v1.04Zm0,8.55h-.72v-6.65h.72v6.65Z" style="fill:#fff; stroke-width:0px;"/><path d="m150.05,158.04c0-1.05.23-1.9.68-2.54.45-.64,1.08-.96,1.88-.96.47,0,.89.1,1.22.32.35.2.63.49.85.87l.09-1.05h.61v6.56c0,.86-.22,1.53-.7,2.03-.48.49-1.14.74-1.97.74-.33,0-.66-.04-1.02-.12-.37-.08-.67-.18-.95-.32l.18-.62c.26.13.54.23.82.3.3.07.61.11.95.11.64,0,1.13-.2,1.47-.57.33-.37.49-.89.49-1.55v-.84c-.22.34-.5.6-.85.78-.35.18-.74.28-1.2.28-.79,0-1.43-.3-1.87-.9-.45-.59-.68-1.38-.68-2.38v-.13Zm.73.13c0,.8.17,1.44.49,1.93.34.47.81.71,1.48.71.47,0,.87-.11,1.19-.33.31-.21.56-.52.72-.9v-3.09c-.15-.38-.39-.7-.7-.95-.31-.24-.71-.37-1.21-.37-.65,0-1.14.26-1.46.79-.34.54-.51,1.23-.51,2.07v.13Z" style="fill:#fff; stroke-width:0px;"/><path d="m160.98,152.77h-.72v-1.04h.72v1.04Zm0,8.55h-.72v-6.65h.72v6.65Z" style="fill:#fff; stroke-width:0px;"/><path d="m166.97,152.96v1.71h1.47v.6h-1.47v4.33c0,.44.08.75.23.93.16.18.38.28.63.28.12,0,.23,0,.35-.02.11,0,.24-.03.4-.06l.11.55c-.13.06-.28.1-.45.12-.18.03-.36.05-.53.05-.47,0-.84-.15-1.1-.44-.24-.3-.39-.76-.39-1.4v-4.33h-1.15v-.6h1.15v-1.71h.74Z" style="fill:#fff; stroke-width:0px;"/><path d="m177.02,161.32c-.05-.23-.09-.42-.11-.59-.02-.16-.03-.33-.03-.49-.26.35-.57.64-.99.87-.41.23-.88.35-1.37.35-.65,0-1.15-.18-1.52-.52-.36-.35-.53-.8-.53-1.38,0-.62.26-1.11.79-1.48.53-.37,1.24-.55,2.15-.55h1.47v-.82c0-.47-.15-.85-.46-1.12s-.73-.4-1.27-.4-.95.12-1.28.38-.51.57-.51.95h-.67s-.02-.04-.02-.04c-.02-.5.21-.94.69-1.33.47-.39,1.08-.59,1.81-.59s1.32.19,1.77.56c.45.37.67.91.67,1.6v3.27c0,.23,0,.46.04.68.03.21.07.44.12.66h-.75Zm-2.42-.52c.53,0,1-.13,1.41-.37.4-.25.69-.57.88-.95v-1.39h-1.48c-.67,0-1.21.14-1.61.42-.4.29-.59.64-.59,1.06,0,.36.12.65.36.89.25.22.6.34,1.04.34Z" style="fill:#fff; stroke-width:0px;"/><path d="m183.19,161.32h-.72v-9.59h.72v9.59Z" style="fill:#fff; stroke-width:0px;"/><path d="m199.25,158.17c0,1-.22,1.79-.67,2.38-.45.6-1.08.89-1.86.89-.47,0-.88-.09-1.23-.27-.34-.17-.63-.43-.85-.75v3.45h-.73v-9.2h.62l.09,1.03c.22-.37.51-.65.86-.85.36-.2.76-.3,1.23-.3.8,0,1.44.32,1.88.96.45.64.67,1.49.67,2.54v.13Zm-.73-.14c0-.84-.16-1.53-.5-2.07-.35-.53-.83-.79-1.48-.79-.5,0-.91.12-1.21.35-.32.24-.54.55-.7.92v3.21c.16.37.42.65.73.86.32.21.7.31,1.18.31.64,0,1.14-.24,1.48-.72s.5-1.12.5-1.93v-.13Z" style="fill:#fff; stroke-width:0px;"/><path d="m207.93,161.32c-.05-.23-.08-.42-.11-.59,0-.16-.03-.33-.03-.49-.24.35-.57.64-.98.87-.41.23-.87.35-1.39.35-.64,0-1.15-.18-1.52-.52-.35-.35-.53-.8-.53-1.38,0-.62.26-1.11.79-1.48.54-.37,1.25-.55,2.15-.55h1.47v-.82c0-.47-.15-.85-.45-1.12-.31-.27-.74-.4-1.28-.4s-.94.12-1.27.38c-.35.26-.51.57-.51.95h-.68s-.01-.04-.01-.04c-.03-.5.2-.94.68-1.33s1.08-.59,1.82-.59,1.32.19,1.77.56c.44.37.66.91.66,1.6v3.27c0,.23.01.46.04.68.03.21.07.44.13.66h-.76Zm-2.42-.52c.54,0,1-.13,1.4-.37.41-.25.7-.57.88-.95v-1.39h-1.48c-.67,0-1.2.14-1.6.42-.41.29-.6.64-.6,1.06,0,.36.12.65.38.89.24.22.59.34,1.02.34Z" style="fill:#fff; stroke-width:0px;"/><path d="m216.35,155.3l-.55-.04c-.46,0-.85.13-1.13.39-.31.26-.52.62-.65,1.07v4.59h-.72v-6.65h.64l.08,1.11v.07c.2-.41.46-.73.78-.95.33-.24.7-.35,1.15-.35.1,0,.18,0,.28.02.08.01.15.04.2.05l-.09.68Z" style="fill:#fff; stroke-width:0px;"/><path d="m221.72,152.96v1.71h1.47v.6h-1.47v4.33c0,.44.08.75.25.93.15.18.37.28.63.28.11,0,.22,0,.34-.02.11,0,.25-.03.4-.06l.11.55c-.13.06-.26.1-.45.12-.17.03-.36.05-.53.05-.47,0-.84-.15-1.09-.44-.26-.3-.39-.76-.39-1.4v-4.33h-1.15v-.6h1.15v-1.71h.73Z" style="fill:#fff; stroke-width:0px;"/><path d="m228.22,154.67l.06,1.15c.2-.4.5-.72.86-.94.37-.22.79-.34,1.29-.34.72,0,1.27.22,1.65.66.38.44.56,1.14.56,2.07v4.05h-.73v-4.05c0-.76-.15-1.3-.43-1.62-.29-.32-.68-.47-1.22-.47s-.94.13-1.25.4c-.33.28-.56.64-.7,1.08v4.66h-.74v-6.65h.66Z" style="fill:#fff; stroke-width:0px;"/><path d="m239.87,161.44c-.83,0-1.53-.31-2.08-.93-.55-.62-.82-1.39-.82-2.33v-.34c0-.95.28-1.74.82-2.37.55-.63,1.21-.94,2-.94s1.46.26,1.92.77c.46.52.7,1.21.7,2.07v.62h-4.69v.18c0,.75.19,1.38.59,1.88.4.49.92.75,1.57.75.46,0,.85-.07,1.17-.19.33-.13.6-.31.82-.55l.31.5c-.24.27-.56.47-.95.63-.39.16-.84.23-1.36.23Zm-.09-6.27c-.55,0-1.01.2-1.38.62-.37.41-.58.93-.64,1.55v.04h3.91v-.19c0-.58-.17-1.06-.52-1.44-.34-.39-.79-.58-1.37-.58Z" style="fill:#fff; stroke-width:0px;"/><path d="m249.72,155.3l-.55-.04c-.46,0-.83.13-1.13.39-.31.26-.52.62-.65,1.07v4.59h-.73v-6.65h.65l.08,1.11v.07c.2-.41.45-.73.78-.95.32-.24.7-.35,1.15-.35.1,0,.18,0,.27.02.09.01.16.04.21.05l-.09.68Z" style="fill:#fff; stroke-width:0px;"/><path d="m186.68,0l.31.31v60.12c0,18.99-8.87,30.35-26.63,34.05l-6.92.6h-5.14c-8.84,0-16.52-3.15-23.13-9.49-7.4,6.34-15.11,9.49-23.16,9.49h-3.12c-16.83,0-27.93-6.35-33.31-19.07-1.13-3.75-2.02-8-2.57-12.71l.31-11.53V.82l.52-.51h4.93c6.75,0,10.93,3.46,12.51,10.38l.21,3.44v49.47c0,7.26,3.94,11.67,11.86,13.24l3.49.31h2.91c10.97,0,16.48-5.21,16.48-15.59V9.25l.52-.61h4.93c5.96,0,10.01,3.27,12.17,9.83l.24,2.66v37.83c0,8.94,2.13,14.24,6.38,15.92,2.74,1.51,6.1,2.28,10.11,2.28h.62c11.93,0,17.85-5.11,17.85-15.28V12.97c0-8.67,5.9-12.97,17.65-12.97Z" style="fill:#fff; stroke-width:0px;"/></svg>