<?xml version="1.0" encoding="utf-8"?>
<!-- Generator: Adobe Illustrator 28.0.0, SVG Export Plug-In . SVG Version: 6.00 Build 0)  -->
<svg version="1.1" id="uuid-6a1e9b42-bf87-4e1e-bfbb-b233935a62fd"
	 xmlns="http://www.w3.org/2000/svg" xmlns:xlink="http://www.w3.org/1999/xlink" x="0px" y="0px" viewBox="0 0 64 64"
	 style="enable-background:new 0 0 64 64;" xml:space="preserve">
<style type="text/css">
	.st0{fill:url(#SVGID_1_);}
	.st1{fill:#25363F;}
	.st2{fill:#FFFFFF;}
</style>
<linearGradient id="SVGID_1_" gradientUnits="userSpaceOnUse" x1="-181.1225" y1="2.8775" x2="-180.1225" y2="3.8775" gradientTransform="matrix(64 0 0 64 11592 -184)">
	<stop  offset="0" style="stop-color:#C78A5C"/>
	<stop  offset="0.5" style="stop-color:#7EA1C4"/>
	<stop  offset="1" style="stop-color:#C78A5C"/>
</linearGradient>
<path class="st0" d="M12,0h40c6.63,0,12,5.37,12,12v40c0,6.63-5.37,12-12,12H12C5.37,64,0,58.63,0,52V12C0,5.37,5.37,0,12,0z"/>
<path class="st1" d="M56.36,49.15c0-0.15,0.02-0.24,0.02-0.33c0-1.27,0-2.54,0-3.8c0-0.29-0.1-0.35-0.36-0.34
	c-1.2,0.01-2.4-0.03-3.59,0.02c-1.1,0.04-2.05-0.33-2.86-1.01c-2.14-1.79-3.03-4.2-3.28-6.89c-0.01-0.14,0.06-0.31,0.14-0.44
	c0.51-0.92,1.08-1.8,1.54-2.74c1.5-3.07,2.22-6.31,1.85-9.72c-0.69-6.4-4.05-10.96-9.84-13.64c-4.55-2.11-9.31-2.23-14.07-0.73
	c-3.82,1.2-6.9,3.47-9.1,6.84c-2.76,4.24-3.32,8.84-2.09,13.69c0.57,2.26,1.58,4.32,2.84,6.27c0.09,0.14,0.18,0.32,0.16,0.47
	c-0.22,2.51-1.03,4.77-2.88,6.55c-0.93,0.9-2.01,1.42-3.36,1.36c-1.17-0.06-2.35,0-3.53-0.02c-0.25,0-0.34,0.07-0.34,0.33
	c0.01,1.27,0.01,2.54,0,3.8c0,0.29,0.1,0.35,0.36,0.34c1.24,0,2.49,0,3.73,0c1.48,0,2.84-0.4,4.12-1.11
	c2.22-1.23,3.86-3.02,4.95-5.29c0.94-1.96,1.58-4.01,1.56-6.21c0-0.73-0.13-1.44-0.54-2.08c-0.38-0.59-0.77-1.18-1.1-1.79
	c-1.54-2.82-2.34-5.81-1.86-9.04c0.49-3.29,2.08-5.95,4.74-7.94c2.08-1.56,4.45-2.38,7.04-2.6c3.22-0.27,6.24,0.32,9,2.05
	c4.32,2.71,6.35,7.56,5.5,12.51c-0.4,2.35-1.33,4.51-2.68,6.47c-0.64,0.93-0.82,1.93-0.78,3.01c0.05,1.24,0.36,2.44,0.74,3.61
	c0.92,2.84,2.5,5.2,5.02,6.87c1.57,1.04,3.29,1.63,5.21,1.57c1.1-0.03,2.21,0,3.32,0h0.41L56.36,49.15z M13.06,55.05
	c0.48,0.08,0.91,0.16,1.35,0.23c2.31,0.32,4.62,0.36,6.9-0.23c2.02-0.52,3.76-1.5,5.03-3.21c2.15-2.89,3.24-6.18,3.54-9.74
	c0-0.1,0-0.2-0.02-0.35h-4.51c0,0-0.02,0.03-0.02,0.05c-0.02,0.15-0.04,0.3-0.05,0.45c-0.2,1.89-0.7,3.69-1.62,5.35
	c-0.37,0.68-0.81,1.35-1.31,1.94c-0.71,0.84-1.73,1.15-2.78,1.34c-1.69,0.3-3.38,0.22-5.05-0.1c-0.3-0.06-0.41,0.01-0.47,0.31
	c-0.1,0.48-0.24,0.96-0.36,1.44c-0.21,0.82-0.41,1.65-0.63,2.53l0,0L13.06,55.05z M36.46,41.69v0.07c-0.65,0-1.29,0.02-1.94,0
	c-0.34-0.01-0.4,0.12-0.37,0.42c0.28,3.12,1.2,6.01,2.85,8.69c1.44,2.33,3.5,3.7,6.14,4.28c2.52,0.55,5.04,0.41,7.55-0.05
	c0.25-0.04,0.24-0.17,0.19-0.37c-0.31-1.23-0.63-2.46-0.92-3.69c-0.06-0.27-0.17-0.32-0.43-0.27c-1.26,0.24-2.54,0.31-3.82,0.25
	c-2.21-0.11-4-0.86-5.11-2.95c-1.01-1.9-1.69-3.88-1.87-6.03c-0.03-0.31-0.12-0.38-0.41-0.37c-0.62,0.02-1.24,0-1.87,0l0,0
	L36.46,41.69z M26.17,33.07c1.33,0,2.4-1.04,2.39-2.31c-0.02-1.26-1.08-2.29-2.38-2.3c-1.32,0-2.39,1.02-2.4,2.3
	c0,1.28,1.05,2.31,2.38,2.31H26.17z M37.85,33.07c1.32,0,2.39-1.03,2.39-2.31c0-1.25-1.08-2.3-2.37-2.3c-1.32,0-2.38,1.01-2.4,2.3
	C35.47,32.05,36.51,33.07,37.85,33.07L37.85,33.07z"/>
<path class="st2" d="M56.36,49.15h-0.41c-1.11,0-2.21-0.03-3.32,0c-1.92,0.06-3.63-0.53-5.21-1.57c-2.52-1.67-4.1-4.03-5.02-6.87
	c-0.38-1.18-0.68-2.37-0.74-3.61c-0.05-1.08,0.14-2.08,0.78-3.01c1.35-1.96,2.27-4.11,2.68-6.47c0.85-4.95-1.18-9.8-5.5-12.51
	c-2.76-1.73-5.79-2.32-9-2.05c-2.58,0.22-4.95,1.04-7.04,2.6c-2.66,2-4.26,4.65-4.74,7.94c-0.48,3.23,0.32,6.22,1.86,9.04
	c0.34,0.62,0.73,1.2,1.1,1.79c0.41,0.64,0.53,1.35,0.54,2.08c0.02,2.2-0.62,4.25-1.56,6.21c-1.09,2.27-2.73,4.06-4.95,5.29
	c-1.28,0.71-2.64,1.12-4.12,1.11c-1.24,0-2.49,0-3.73,0c-0.26,0-0.36-0.06-0.36-0.34c0.02-1.27,0.01-2.54,0-3.8
	c0-0.26,0.09-0.33,0.34-0.33c1.18,0,2.35-0.04,3.53,0.02c1.35,0.06,2.43-0.46,3.36-1.36c1.85-1.79,2.66-4.05,2.88-6.55
	c0.01-0.15-0.07-0.33-0.16-0.47c-1.26-1.95-2.27-4.01-2.84-6.27c-1.23-4.85-0.67-9.45,2.09-13.69c2.19-3.38,5.27-5.65,9.1-6.84
	c4.76-1.5,9.52-1.37,14.07,0.73c5.8,2.68,9.15,7.24,9.84,13.64c0.37,3.41-0.35,6.65-1.85,9.72c-0.46,0.94-1.03,1.83-1.54,2.74
	c-0.07,0.13-0.15,0.3-0.14,0.44c0.25,2.7,1.14,5.1,3.28,6.89c0.82,0.69,1.76,1.05,2.86,1.01c1.2-0.04,2.4,0,3.59-0.02
	c0.26,0,0.36,0.06,0.36,0.34c-0.02,1.27,0,2.54,0,3.8c0,0.09,0,0.18-0.02,0.33l0,0L56.36,49.15z"/>
<path class="st2" d="M13.06,55.05c0.22-0.88,0.42-1.7,0.63-2.53c0.12-0.48,0.26-0.96,0.36-1.44c0.06-0.29,0.17-0.36,0.47-0.31
	c1.68,0.31,3.36,0.39,5.05,0.1c1.05-0.19,2.07-0.5,2.78-1.34c0.5-0.59,0.93-1.26,1.31-1.94c0.92-1.66,1.42-3.47,1.62-5.35
	c0.02-0.15,0.03-0.3,0.05-0.45c0-0.02,0.02-0.04,0.02-0.05h4.51c0,0.15,0.03,0.25,0.02,0.35c-0.3,3.57-1.39,6.85-3.54,9.74
	c-1.26,1.7-3.01,2.68-5.03,3.21c-2.28,0.59-4.58,0.55-6.9,0.23C13.97,55.21,13.53,55.12,13.06,55.05L13.06,55.05L13.06,55.05z"/>
<path class="st2" d="M36.46,41.68c0.62,0,1.24,0.02,1.87,0c0.29,0,0.39,0.07,0.41,0.37c0.19,2.14,0.86,4.12,1.87,6.03
	c1.11,2.08,2.9,2.84,5.11,2.95c1.28,0.06,2.56,0,3.82-0.25c0.26-0.05,0.36,0,0.43,0.27c0.29,1.23,0.6,2.46,0.92,3.69
	c0.05,0.2,0.06,0.32-0.19,0.37c-2.52,0.45-5.04,0.6-7.55,0.05c-2.63-0.58-4.7-1.95-6.14-4.28c-1.65-2.68-2.57-5.57-2.85-8.69
	c-0.03-0.3,0.03-0.44,0.37-0.42c0.64,0.02,1.29,0,1.93,0V41.7l0,0V41.68z"/>
<path class="st2" d="M26.16,33.06c-1.33,0-2.39-1.02-2.38-2.31c0-1.28,1.08-2.31,2.4-2.3c1.3,0,2.36,1.03,2.38,2.3
	C28.58,32.02,27.5,33.06,26.16,33.06L26.16,33.06z"/>
<path class="st2" d="M37.85,33.06c-1.34,0-2.39-1.02-2.38-2.31c0-1.29,1.07-2.31,2.4-2.3c1.3,0,2.37,1.05,2.37,2.3
	C40.24,32.03,39.17,33.06,37.85,33.06L37.85,33.06z"/>
</svg>
