<?xml version="1.0" encoding="utf-8"?>
<!-- Generator: Adobe Illustrator 28.0.0, SVG Export Plug-In . SVG Version: 6.00 Build 0)  -->
<svg version="1.1" id="Calque_1" xmlns="http://www.w3.org/2000/svg" xmlns:xlink="http://www.w3.org/1999/xlink" x="0px" y="0px"
	 viewBox="0 0 500 104" style="enable-background:new 0 0 500 104;" xml:space="preserve">
<style type="text/css">
	.st0{fill:#FFFFFF;}
	.st1{fill:url(#SVGID_1_);}
	.st2{fill:#26373F;}
	.st3{fill:url(#SVGID_00000048459115929364226670000004482319254497933226_);}
</style>
<g>
	<g>
		<path class="st0" d="M140.2,74.57c-3.12-1.67-5.57-4.05-7.36-7.14c-1.79-3.1-2.68-6.71-2.68-10.86s0.9-7.7,2.71-10.82
			c1.81-3.12,4.29-5.51,7.43-7.18c3.14-1.67,6.67-2.5,10.57-2.5s7.43,0.83,10.57,2.5c3.14,1.67,5.62,4.06,7.43,7.18
			c1.81,3.12,2.71,6.73,2.71,10.82s-0.92,7.7-2.75,10.82c-1.83,3.12-4.33,5.51-7.5,7.18c-3.17,1.67-6.7,2.5-10.61,2.5
			C146.84,77.07,143.32,76.23,140.2,74.57L140.2,74.57z M156.7,63.93c1.64-1.71,2.46-4.17,2.46-7.36c0-3.19-0.8-5.64-2.39-7.36
			c-1.59-1.71-3.56-2.57-5.89-2.57s-4.36,0.84-5.93,2.54c-1.57,1.69-2.36,4.15-2.36,7.39c0,3.24,0.77,5.64,2.32,7.36
			c1.55,1.71,3.49,2.57,5.82,2.57S155.05,65.64,156.7,63.93L156.7,63.93z"/>
		<path class="st0" d="M180.13,45.71c1.69-3.1,4.05-5.48,7.07-7.14c3.02-1.67,6.49-2.5,10.39-2.5c5,0,9.18,1.31,12.53,3.93
			s5.56,6.31,6.61,11.07h-13c-1.1-3.04-3.22-4.57-6.36-4.57c-2.24,0-4.03,0.87-5.36,2.61c-1.33,1.74-2,4.23-2,7.46s0.67,5.73,2,7.46
			c1.33,1.74,3.12,2.61,5.36,2.61c3.14,0,5.26-1.52,6.36-4.57h13c-1.05,4.67-3.26,8.33-6.64,11c-3.38,2.67-7.55,4-12.5,4
			c-3.91,0-7.37-0.83-10.39-2.5c-3.02-1.67-5.38-4.05-7.07-7.14s-2.54-6.71-2.54-10.86S178.43,48.8,180.13,45.71L180.13,45.71z"/>
		<path class="st0" d="M247.37,66.14v10.35h-6.21c-4.43,0-7.88-1.08-10.36-3.25c-2.48-2.17-3.71-5.7-3.71-10.61V46.78h-4.86V36.64
			h4.86v-9.71h12.21v9.71h8v10.14h-8v16c0,1.19,0.29,2.05,0.86,2.57c0.57,0.52,1.52,0.78,2.86,0.78H247.37z"/>
		<path class="st0" d="M263.69,74.57c-3.12-1.67-5.57-4.05-7.36-7.14s-2.68-6.71-2.68-10.86s0.9-7.7,2.71-10.82
			c1.81-3.12,4.29-5.51,7.43-7.18c3.14-1.67,6.67-2.5,10.57-2.5s7.43,0.83,10.57,2.5c3.14,1.67,5.62,4.06,7.43,7.18
			c1.81,3.12,2.71,6.73,2.71,10.82s-0.92,7.7-2.75,10.82c-1.83,3.12-4.33,5.51-7.5,7.18c-3.17,1.67-6.7,2.5-10.61,2.5
			S266.81,76.23,263.69,74.57L263.69,74.57z M280.19,63.93c1.64-1.71,2.46-4.17,2.46-7.36c0-3.19-0.8-5.64-2.39-7.36
			c-1.59-1.71-3.56-2.57-5.89-2.57c-2.33,0-4.36,0.84-5.93,2.54c-1.57,1.69-2.36,4.15-2.36,7.39c0,3.24,0.77,5.64,2.32,7.36
			c1.55,1.71,3.49,2.57,5.82,2.57S278.54,65.64,280.19,63.93L280.19,63.93z"/>
		<path class="st0" d="M366.18,40.71c2.93,3,4.39,7.17,4.39,12.5V76.5h-12.14V54.86c0-2.57-0.68-4.56-2.03-5.96
			c-1.36-1.4-3.23-2.11-5.61-2.11c-2.38,0-4.25,0.7-5.61,2.11c-1.36,1.4-2.03,3.39-2.03,5.96V76.5h-12.14V54.86
			c0-2.57-0.68-4.56-2.03-5.96c-1.36-1.4-3.23-2.11-5.61-2.11s-4.25,0.7-5.61,2.11c-1.36,1.4-2.03,3.39-2.03,5.96V76.5h-12.21V36.65
			h12.21v5c1.24-1.67,2.86-2.99,4.86-3.96s4.26-1.46,6.79-1.46c3,0,5.68,0.64,8.03,1.93s4.2,3.12,5.54,5.5
			c1.38-2.19,3.26-3.97,5.64-5.36c2.38-1.38,4.98-2.07,7.79-2.07C359.32,36.22,363.26,37.72,366.18,40.71L366.18,40.71z"/>
		<path class="st0" d="M380.97,45.71c1.55-3.1,3.65-5.48,6.32-7.14c2.67-1.67,5.64-2.5,8.93-2.5c2.81,0,5.27,0.57,7.39,1.71
			s3.75,2.64,4.89,4.5v-5.64h12.21v39.85H408.5v-5.64c-1.19,1.86-2.84,3.36-4.96,4.5c-2.12,1.14-4.58,1.71-7.39,1.71
			c-3.24,0-6.19-0.84-8.86-2.54c-2.67-1.69-4.77-4.09-6.32-7.22c-1.55-3.12-2.32-6.73-2.32-10.82S379.42,48.8,380.97,45.71
			L380.97,45.71z M405.96,49.35c-1.69-1.76-3.75-2.64-6.18-2.64c-2.43,0-4.49,0.87-6.18,2.61c-1.69,1.74-2.54,4.13-2.54,7.18
			s0.84,5.46,2.54,7.25c1.69,1.79,3.75,2.68,6.18,2.68c2.43,0,4.49-0.88,6.18-2.64c1.69-1.76,2.54-4.17,2.54-7.22
			C408.5,53.51,407.66,51.11,405.96,49.35L405.96,49.35z"/>
		<path class="st0" d="M453.71,66.14v10.35h-6.21c-4.43,0-7.88-1.08-10.36-3.25c-2.48-2.17-3.71-5.7-3.71-10.61V46.78h-4.86V36.64
			h4.86v-9.71h12.21v9.71h8v10.14h-8v16c0,1.19,0.29,2.05,0.86,2.57c0.57,0.52,1.52,0.78,2.86,0.78H453.71L453.71,66.14z"/>
		<path class="st0" d="M499.78,59.5h-27.64c0.19,2.48,0.99,4.37,2.39,5.68c1.4,1.31,3.13,1.97,5.18,1.97c3.04,0,5.16-1.28,6.36-3.86
			h13c-0.67,2.62-1.87,4.98-3.61,7.07s-3.92,3.74-6.53,4.93c-2.62,1.19-5.55,1.79-8.79,1.79c-3.91,0-7.38-0.83-10.43-2.5
			c-3.05-1.67-5.43-4.05-7.14-7.14c-1.71-3.1-2.57-6.71-2.57-10.86s0.84-7.76,2.54-10.86c1.69-3.1,4.06-5.48,7.1-7.14
			c3.04-1.67,6.55-2.5,10.5-2.5s7.28,0.81,10.29,2.43c3,1.62,5.34,3.93,7.04,6.93c1.69,3,2.54,6.5,2.54,10.5
			C500,57.07,499.93,58.26,499.78,59.5L499.78,59.5z M487.49,52.71c0-2.09-0.71-3.76-2.14-5c-1.43-1.24-3.22-1.86-5.36-1.86
			c-2.14,0-3.77,0.6-5.18,1.79s-2.27,2.88-2.61,5.07L487.49,52.71L487.49,52.71z"/>
	</g>
	<g>
		
			<linearGradient id="SVGID_1_" gradientUnits="userSpaceOnUse" x1="33.4727" y1="94.4528" x2="35.0437" y2="96.0238" gradientTransform="matrix(64 0 0 64 -2142 -6043)">
			<stop  offset="0" style="stop-color:#C88C5D"/>
			<stop  offset="0.5" style="stop-color:#7EA1C4"/>
			<stop  offset="1" style="stop-color:#C88C5D"/>
		</linearGradient>
		<path class="st1" d="M18.85,1.73h62.84c10.41,0,18.85,8.44,18.85,18.85v62.84c0,10.41-8.44,18.85-18.85,18.85H18.85
			C8.44,102.27,0,93.83,0,83.42V20.58C0,10.17,8.44,1.73,18.85,1.73z"/>
		<path class="st2" d="M88.54,78.94c0-0.24,0.03-0.38,0.03-0.52c0-2,0-3.99,0-5.97c0-0.46-0.16-0.55-0.57-0.53
			c-1.89,0.02-3.77-0.05-5.64,0.03c-1.73,0.06-3.22-0.52-4.49-1.59c-3.36-2.81-4.76-6.6-5.15-10.82c-0.02-0.22,0.09-0.49,0.22-0.69
			c0.8-1.45,1.7-2.83,2.42-4.3c2.36-4.82,3.49-9.91,2.91-15.27c-1.08-10.05-6.36-17.22-15.46-21.43c-7.15-3.31-14.63-3.5-22.1-1.15
			c-6,1.89-10.84,5.45-14.3,10.75c-4.34,6.66-5.22,13.89-3.28,21.51c0.9,3.55,2.48,6.79,4.46,9.85c0.14,0.22,0.28,0.5,0.25,0.74
			c-0.35,3.94-1.62,7.49-4.52,10.29c-1.46,1.41-3.16,2.23-5.28,2.14c-1.84-0.09-3.69,0-5.55-0.03c-0.39,0-0.53,0.11-0.53,0.52
			c0.02,2,0.02,3.99,0,5.97c0,0.46,0.16,0.55,0.57,0.53c1.95,0,3.91,0,5.86,0c2.33,0,4.46-0.63,6.47-1.74
			c3.49-1.93,6.06-4.74,7.78-8.31c1.48-3.08,2.48-6.3,2.45-9.76c0-1.15-0.2-2.26-0.85-3.27c-0.6-0.93-1.21-1.85-1.73-2.81
			c-2.42-4.43-3.68-9.13-2.92-14.2c0.77-5.17,3.27-9.35,7.45-12.47c3.27-2.45,6.99-3.74,11.06-4.08c5.06-0.42,9.8,0.5,14.14,3.22
			c6.79,4.26,9.98,11.88,8.64,19.65c-0.63,3.69-2.09,7.09-4.21,10.16c-1.01,1.46-1.29,3.03-1.23,4.73c0.08,1.95,0.57,3.83,1.16,5.67
			c1.45,4.46,3.93,8.17,7.89,10.79c2.47,1.63,5.17,2.56,8.18,2.47c1.73-0.05,3.47,0,5.22,0h0.64L88.54,78.94z M20.52,88.21
			c0.75,0.13,1.43,0.25,2.12,0.36c3.63,0.5,7.26,0.57,10.84-0.36c3.17-0.82,5.91-2.36,7.9-5.04c3.38-4.54,5.09-9.71,5.56-15.3
			c0-0.16,0-0.31-0.03-0.55h-7.09c0,0-0.03,0.05-0.03,0.08c-0.03,0.24-0.06,0.47-0.08,0.71c-0.31,2.97-1.1,5.8-2.55,8.4
			c-0.58,1.07-1.27,2.12-2.06,3.05c-1.12,1.32-2.72,1.81-4.37,2.11c-2.65,0.47-5.31,0.35-7.93-0.16c-0.47-0.09-0.64,0.02-0.74,0.49
			c-0.16,0.75-0.38,1.51-0.57,2.26c-0.33,1.29-0.64,2.59-0.99,3.97l0,0L20.52,88.21z M57.28,67.22v0.11c-1.02,0-2.03,0.03-3.05,0
			c-0.53-0.02-0.63,0.19-0.58,0.66c0.44,4.9,1.89,9.44,4.48,13.65c2.26,3.66,5.5,5.81,9.65,6.72c3.96,0.86,7.92,0.64,11.86-0.08
			c0.39-0.06,0.38-0.27,0.3-0.58c-0.49-1.93-0.99-3.86-1.45-5.8c-0.09-0.42-0.27-0.5-0.68-0.42c-1.98,0.38-3.99,0.49-6,0.39
			c-3.47-0.17-6.28-1.35-8.03-4.63c-1.59-2.98-2.65-6.1-2.94-9.47c-0.05-0.49-0.19-0.6-0.64-0.58c-0.97,0.03-1.95,0-2.94,0l0,0
			L57.28,67.22z M41.11,53.68c2.09,0,3.77-1.63,3.75-3.63c-0.03-1.98-1.7-3.6-3.74-3.61c-2.07,0-3.75,1.6-3.77,3.61
			c0,2.01,1.65,3.63,3.74,3.63H41.11z M59.46,53.68c2.07,0,3.75-1.62,3.75-3.63c0-1.96-1.7-3.61-3.72-3.61
			c-2.07,0-3.74,1.59-3.77,3.61C55.72,52.08,57.36,53.68,59.46,53.68L59.46,53.68z"/>
		<path class="st0" d="M88.54,78.94H87.9c-1.74,0-3.47-0.05-5.22,0c-3.02,0.09-5.7-0.83-8.18-2.47c-3.96-2.62-6.44-6.33-7.89-10.79
			c-0.6-1.85-1.07-3.72-1.16-5.67c-0.08-1.7,0.22-3.27,1.23-4.73c2.12-3.08,3.57-6.46,4.21-10.16c1.34-7.78-1.85-15.4-8.64-19.65
			c-4.34-2.72-9.1-3.64-14.14-3.22c-4.05,0.35-7.78,1.63-11.06,4.08c-4.18,3.14-6.69,7.31-7.45,12.47c-0.75,5.07,0.5,9.77,2.92,14.2
			c0.53,0.97,1.15,1.89,1.73,2.81c0.64,1.01,0.83,2.12,0.85,3.27c0.03,3.46-0.97,6.68-2.45,9.76c-1.71,3.57-4.29,6.38-7.78,8.31
			c-2.01,1.12-4.15,1.76-6.47,1.74c-1.95,0-3.91,0-5.86,0c-0.41,0-0.57-0.09-0.57-0.53c0.03-2,0.02-3.99,0-5.97
			c0-0.41,0.14-0.52,0.53-0.52c1.85,0,3.69-0.06,5.55,0.03c2.12,0.09,3.82-0.72,5.28-2.14c2.91-2.81,4.18-6.36,4.52-10.29
			c0.02-0.24-0.11-0.52-0.25-0.74c-1.98-3.06-3.57-6.3-4.46-9.85c-1.93-7.62-1.05-14.85,3.28-21.51c3.44-5.31,8.28-8.88,14.3-10.75
			c7.48-2.36,14.96-2.15,22.1,1.15c9.11,4.21,14.37,11.37,15.46,21.43c0.58,5.36-0.55,10.45-2.91,15.27
			c-0.72,1.48-1.62,2.87-2.42,4.3c-0.11,0.2-0.24,0.47-0.22,0.69c0.39,4.24,1.79,8.01,5.15,10.82c1.29,1.08,2.76,1.65,4.49,1.59
			c1.89-0.06,3.77,0,5.64-0.03c0.41,0,0.57,0.09,0.57,0.53c-0.03,2,0,3.99,0,5.97c0,0.14,0,0.28-0.03,0.52l0,0L88.54,78.94z"/>
		<path class="st0" d="M20.52,88.21c0.35-1.38,0.66-2.67,0.99-3.97c0.19-0.75,0.41-1.51,0.57-2.26c0.09-0.46,0.27-0.57,0.74-0.49
			c2.64,0.49,5.28,0.61,7.93,0.16c1.65-0.3,3.25-0.79,4.37-2.11c0.79-0.93,1.46-1.98,2.06-3.05c1.45-2.61,2.23-5.45,2.55-8.4
			c0.03-0.24,0.05-0.47,0.08-0.71c0-0.03,0.03-0.06,0.03-0.08h7.09c0,0.24,0.05,0.39,0.03,0.55c-0.47,5.61-2.18,10.76-5.56,15.3
			c-1.98,2.67-4.73,4.21-7.9,5.04c-3.58,0.93-7.2,0.86-10.84,0.36c-0.69-0.09-1.38-0.24-2.12-0.36l0,0L20.52,88.21z"/>
		<path class="st0" d="M57.28,67.21c0.97,0,1.95,0.03,2.94,0c0.46,0,0.61,0.11,0.64,0.58c0.3,3.36,1.35,6.47,2.94,9.47
			c1.74,3.27,4.56,4.46,8.03,4.63c2.01,0.09,4.02,0,6-0.39c0.41-0.08,0.57,0,0.68,0.42c0.46,1.93,0.94,3.86,1.45,5.8
			c0.08,0.31,0.09,0.5-0.3,0.58c-3.96,0.71-7.92,0.94-11.86,0.08c-4.13-0.91-7.38-3.06-9.65-6.72c-2.59-4.21-4.04-8.75-4.48-13.65
			c-0.05-0.47,0.05-0.69,0.58-0.66c1.01,0.03,2.03,0,3.03,0v-0.11l0,0V67.21z"/>
		<path class="st0" d="M41.1,53.67c-2.09,0-3.75-1.6-3.74-3.63c0-2.01,1.7-3.63,3.77-3.61c2.04,0,3.71,1.62,3.74,3.61
			s-1.67,3.63-3.75,3.63H41.1z"/>
		<path class="st0" d="M59.46,53.67c-2.11,0-3.75-1.6-3.74-3.63c0-2.03,1.68-3.63,3.77-3.61c2.04,0,3.72,1.65,3.72,3.61
			C63.22,52.05,61.54,53.67,59.46,53.67L59.46,53.67z"/>
	</g>
</g>
</svg>
