<?xml version="1.0" encoding="utf-8"?>
<!-- Generator: Adobe Illustrator 28.0.0, SVG Export Plug-In . SVG Version: 6.00 Build 0)  -->
<svg version="1.1" id="Calque_1" xmlns="http://www.w3.org/2000/svg" xmlns:xlink="http://www.w3.org/1999/xlink" x="0px" y="0px"
	 viewBox="0 0 250 164" style="enable-background:new 0 0 250 164;" xml:space="preserve">
<style type="text/css">
	.st0{fill:#FFFFFF;}
</style>
<g>
	<g>
		<path class="st0" d="M176.66-0.02c0,0-10.08,9.23,0,19.73C176.66,19.7,187.16,10.47,176.66-0.02z"/>
		<path class="st0" d="M192.18,16.76c0,0-13.66-0.6-13.95,13.95C178.23,30.71,192.18,31.61,192.18,16.76z"/>
		<path class="st0" d="M178.38,46.36c0,0,13.95,0.9,13.95-13.95C192.32,32.42,178.67,31.81,178.38,46.36z"/>
		<path class="st0" d="M178.38,62.02c0,0,13.95,0.9,13.95-13.95C192.32,48.07,178.67,47.46,178.38,62.02z"/>
		<path class="st0" d="M175.13,30.71c-0.29-14.55-13.95-13.95-13.95-13.95C161.18,31.61,175.13,30.71,175.13,30.71z"/>
		<path class="st0" d="M175.13,46.36c-0.29-14.55-13.95-13.95-13.95-13.95C161.18,47.26,175.13,46.36,175.13,46.36z"/>
		<path class="st0" d="M175.13,62.02c-0.29-14.55-13.95-13.95-13.95-13.95C161.18,62.91,175.13,62.02,175.13,62.02z"/>
		<path class="st0" d="M180.01,88.16V69.51h-0.18c-1.09,0.22-2.28,0.34-3.53,0.34c-0.98,0-1.92-0.07-2.8-0.21v12
			c-18.12-18.13-41.09-41.13-43.1-43.15c-1.43-1.43-3.36-2.23-5.38-2.23c-2.02,0-3.95,0.8-5.38,2.23
			c-24.81,24.86-62.33,62.43-64.26,64.27h21.55c8.43-8.42,22.94-22.94,48.09-48.14c24.2,24.25,38.99,39.06,48.09,48.14h21.53
			C192.47,100.62,186.96,95.11,180.01,88.16z"/>
	</g>
	<g>
		<path class="st0" d="M21.83,132.44c-1.04-1.05-2.31-1.87-3.8-2.44c-1.49-0.57-3.19-0.86-5.09-0.86H0v34.51h6.97V153.3h5.29
			c1.78,0,3.44-0.25,5-0.76c1.55-0.51,2.91-1.27,4.07-2.29c1.16-1.02,2.07-2.28,2.74-3.8c0.66-1.51,1-3.27,1-5.28v-0.1
			c0-1.78-0.28-3.39-0.84-4.86C23.67,134.75,22.87,133.5,21.83,132.44z M18,141.32c0,1.48-0.48,2.72-1.45,3.72
			c-0.97,1-2.32,1.5-4.07,1.5H6.97v-10.55h5.38c1.75,0,3.13,0.44,4.14,1.33c1.01,0.89,1.52,2.19,1.52,3.9V141.32z"/>
		<path class="st0" d="M47.41,128.89l-13.57,34.76h7.1l2.9-7.74h13.39l2.9,7.74h7.28l-13.57-34.76H47.41z M46.32,149.21l4.21-11.19
			l4.21,11.19H46.32z"/>
		<polygon class="st0" points="99.88,150.39 85.04,129.14 78.62,129.14 78.62,163.65 85.49,163.65 85.49,141.71 100.83,163.65 
			106.76,163.65 106.76,129.14 99.88,129.14 		"/>
		<path class="st0" d="M132.66,128.77l-13.57,34.76h7.1l2.9-7.74h13.39l2.89,7.74h7.28l-13.57-34.76H132.66z M131.57,149.08
			l4.21-11.19l4.21,11.19H131.57z"/>
		<path class="st0" d="M188.37,133.95c-1.49-1.54-3.27-2.75-5.34-3.62c-2.07-0.87-4.34-1.31-6.81-1.31h-12.35v34.51h12.35
			c2.47,0,4.74-0.44,6.81-1.33c2.06-0.89,3.84-2.1,5.34-3.65c1.49-1.54,2.65-3.37,3.46-5.47c0.81-2.1,1.22-4.37,1.22-6.8v-0.1
			c0-2.43-0.41-4.69-1.22-6.78C191.01,137.31,189.86,135.49,188.37,133.95z M185.77,146.37c0,1.55-0.23,2.94-0.7,4.19
			c-0.47,1.25-1.12,2.33-1.95,3.25c-0.83,0.92-1.83,1.63-3.01,2.12s-2.47,0.74-3.89,0.74h-5.38v-20.81h5.38
			c1.42,0,2.71,0.26,3.89,0.76c1.18,0.51,2.18,1.22,3.01,2.14c0.83,0.92,1.48,2.02,1.95,3.3c0.47,1.28,0.7,2.68,0.7,4.19V146.37z"/>
		<rect x="205.89" y="129.02" class="st0" width="6.97" height="34.51"/>
		<path class="st0" d="M249.34,149.33c-0.44-1.08-1.09-2.03-1.95-2.84c-0.86-0.81-1.92-1.5-3.17-2.07
			c-1.26-0.57-2.68-1.09-4.29-1.55c-1.36-0.39-2.49-0.74-3.38-1.04s-1.6-0.61-2.11-0.94c-0.51-0.33-0.87-0.7-1.07-1.11
			c-0.2-0.41-0.29-0.9-0.29-1.45v-0.1c0-0.85,0.34-1.57,1.02-2.14c0.68-0.57,1.7-0.86,3.05-0.86c1.36,0,2.71,0.3,4.07,0.91
			c1.36,0.61,2.74,1.44,4.16,2.49l3.62-5.72c-1.63-1.41-3.42-2.5-5.36-3.25c-1.95-0.76-4.08-1.13-6.4-1.13
			c-1.63,0-3.12,0.25-4.47,0.74c-1.35,0.49-2.51,1.2-3.49,2.12c-0.97,0.92-1.73,2.01-2.27,3.28c-0.54,1.27-0.81,2.69-0.81,4.27v0.1
			c0,1.71,0.25,3.14,0.75,4.29c0.5,1.15,1.2,2.11,2.11,2.88c0.91,0.77,2.01,1.42,3.31,1.95c1.3,0.53,2.75,1,4.35,1.43
			c1.33,0.36,2.41,0.71,3.24,1.04c0.83,0.33,1.48,0.66,1.95,0.99c0.47,0.33,0.79,0.68,0.95,1.06c0.17,0.38,0.25,0.81,0.25,1.31v0.1
			c0,1.02-0.4,1.82-1.2,2.39c-0.8,0.58-1.92,0.86-3.37,0.86c-1.81,0-3.48-0.38-5-1.13c-1.52-0.76-3.01-1.78-4.46-3.06l-4.12,5.37
			c1.9,1.87,4.01,3.26,6.33,4.17c2.32,0.9,4.69,1.36,7.1,1.36c1.72,0,3.28-0.24,4.7-0.71c1.41-0.48,2.63-1.17,3.65-2.07
			c1.02-0.9,1.81-2.02,2.38-3.35c0.57-1.33,0.85-2.85,0.85-4.56v-0.1C250,151.71,249.78,150.42,249.34,149.33z"/>
	</g>
</g>
</svg>
