<?xml version="1.0" encoding="utf-8"?>
<!-- Generator: Adobe Illustrator 28.0.0, SVG Export Plug-In . SVG Version: 6.00 Build 0)  -->
<svg version="1.1" id="Calque_1" xmlns="http://www.w3.org/2000/svg" xmlns:xlink="http://www.w3.org/1999/xlink" x="0px" y="0px"
	 viewBox="0 0 250 250" style="enable-background:new 0 0 250 250;" xml:space="preserve">
<style type="text/css">
	.st0{fill:#25363F;}
</style>
<path class="st0" d="M246.96,211.77c0.04-0.75,0.09-1.2,0.09-1.66c0-6.36-0.04-12.72,0.04-19.08c0.02-1.43-0.48-1.74-1.79-1.72
	c-6.01,0.06-12.03-0.14-18.03,0.08c-5.53,0.2-10.26-1.65-14.36-5.08c-10.73-8.99-15.18-21.05-16.44-34.57
	c-0.07-0.72,0.32-1.56,0.7-2.23c2.55-4.59,5.4-9.04,7.7-13.75c7.52-15.38,11.13-31.65,9.28-48.75
	c-3.46-32.08-20.3-54.98-49.37-68.42C141.95,6.03,118.1,5.41,94.2,12.91c-19.17,6.02-34.62,17.41-45.63,34.33
	C34.75,68.5,31.92,91.56,38.1,115.91c2.87,11.32,7.94,21.67,14.25,31.45c0.44,0.69,0.88,1.6,0.81,2.36
	c-1.1,12.58-5.17,23.92-14.46,32.88c-4.65,4.49-10.09,7.12-16.84,6.8c-5.88-0.28-11.79-0.03-17.69-0.08
	c-1.26-0.01-1.71,0.35-1.7,1.67c0.06,6.36,0.07,12.72,0,19.08c-0.02,1.44,0.5,1.74,1.81,1.73c6.24-0.05,12.49-0.05,18.73-0.01
	c7.42,0.05,14.26-2.02,20.68-5.59c11.12-6.18,19.36-15.14,24.81-26.55c4.7-9.82,7.94-20.1,7.82-31.17
	c-0.04-3.67-0.67-7.24-2.71-10.43c-1.9-2.97-3.86-5.91-5.54-9c-7.73-14.15-11.74-29.14-9.34-45.35c2.44-16.5,10.44-29.83,23.8-39.84
	c10.45-7.83,22.34-11.96,35.3-13.06c16.13-1.36,31.32,1.6,45.16,10.26c21.69,13.57,31.85,37.91,27.61,62.73
	c-2.02,11.81-6.68,22.6-13.43,32.43c-3.21,4.67-4.13,9.69-3.9,15.11c0.27,6.23,1.79,12.22,3.7,18.12
	c4.61,14.24,12.53,26.08,25.16,34.45c7.9,5.24,16.5,8.19,26.11,7.9c5.54-0.17,11.1-0.03,16.65-0.03c0.62,0,1.25,0,2.05,0
	L246.96,211.77z M29.76,241.35c2.39,0.4,4.58,0.82,6.79,1.13c11.59,1.6,23.16,1.81,34.59-1.16c10.12-2.63,18.88-7.53,25.21-16.08
	c10.76-14.52,16.25-30.98,17.74-48.87c0.04-0.49-0.05-0.99-0.1-1.75H91.37c0,0-0.09,0.13-0.11,0.24c-0.1,0.74-0.19,1.49-0.27,2.24
	c-0.99,9.47-3.52,18.51-8.12,26.86c-1.88,3.42-4.05,6.77-6.57,9.74c-3.57,4.2-8.67,5.79-13.93,6.71c-8.47,1.49-16.93,1.1-25.33-0.48
	c-1.51-0.28-2.05,0.07-2.34,1.53c-0.49,2.43-1.19,4.82-1.79,7.23c-1.03,4.13-2.06,8.27-3.15,12.69L29.76,241.35z M147.14,174.33
	v0.36c-3.24,0-6.47,0.09-9.71-0.04c-1.72-0.07-2.01,0.61-1.88,2.13c1.38,15.63,6.02,30.15,14.28,43.57
	c7.2,11.69,17.57,18.58,30.79,21.48c12.64,2.77,25.27,2.04,37.89-0.23c1.25-0.22,1.22-0.87,0.97-1.86
	c-1.57-6.16-3.14-12.32-4.6-18.51c-0.32-1.35-0.84-1.59-2.14-1.34c-6.33,1.22-12.72,1.58-19.16,1.27
	c-11.09-0.53-20.08-4.33-25.63-14.78c-5.07-9.54-8.46-19.48-9.38-30.23c-0.13-1.53-0.61-1.92-2.08-1.87
	c-3.12,0.11-6.24,0.03-9.36,0.03L147.14,174.33z M95.52,131.07c6.66,0,12.06-5.23,11.99-11.6c-0.08-6.34-5.4-11.49-11.93-11.53
	c-6.61-0.04-11.99,5.13-12.02,11.56C83.53,125.94,88.83,131.07,95.52,131.07z M154.12,131.07c6.62,0.02,12.01-5.19,11.99-11.59
	c-0.02-6.29-5.4-11.52-11.9-11.55c-6.64-0.04-11.96,5.07-12.02,11.55C142.14,125.94,147.4,131.06,154.12,131.07L154.12,131.07z"/>
<path class="st0" d="M246.96,211.77c-0.8,0-1.43,0-2.05,0c-5.55,0-11.1-0.14-16.65,0.03c-9.62,0.29-18.21-2.66-26.11-7.9
	c-12.63-8.38-20.55-20.21-25.16-34.45c-1.91-5.9-3.43-11.88-3.7-18.12c-0.23-5.43,0.69-10.44,3.9-15.11
	c6.75-9.83,11.4-20.62,13.43-32.43c4.25-24.82-5.91-49.16-27.61-62.73c-13.85-8.66-29.03-11.63-45.16-10.26
	c-12.96,1.1-24.85,5.23-35.3,13.06C69.19,53.87,61.19,67.2,58.75,83.7c-2.4,16.21,1.61,31.2,9.34,45.35c1.69,3.09,3.65,6.03,5.54,9
	c2.04,3.19,2.67,6.76,2.71,10.43c0.12,11.06-3.12,21.34-7.82,31.17c-5.46,11.41-13.69,20.37-24.81,26.55
	c-6.42,3.57-13.26,5.64-20.68,5.59c-6.24-0.04-12.49-0.04-18.73,0.01c-1.3,0.01-1.82-0.29-1.81-1.73c0.08-6.36,0.07-12.72,0-19.08
	c-0.01-1.32,0.44-1.68,1.7-1.67c5.9,0.05,11.8-0.2,17.69,0.08c6.75,0.32,12.19-2.32,16.84-6.8c9.29-8.96,13.35-20.3,14.46-32.88
	c0.07-0.76-0.37-1.67-0.81-2.36c-6.3-9.78-11.37-20.13-14.25-31.45c-6.18-24.35-3.35-47.41,10.47-68.67
	C59.6,30.31,75.05,18.92,94.22,12.91c23.9-7.5,47.74-6.88,70.58,3.68c29.07,13.44,45.91,36.34,49.37,68.42
	c1.84,17.1-1.76,33.37-9.28,48.75c-2.3,4.71-5.15,9.16-7.7,13.75c-0.37,0.67-0.77,1.51-0.7,2.23c1.26,13.52,5.71,25.58,16.44,34.57
	c4.1,3.44,8.83,5.28,14.36,5.08c6-0.22,12.02-0.02,18.03-0.08c1.31-0.01,1.81,0.29,1.79,1.72c-0.08,6.36-0.03,12.72-0.04,19.08
	c0,0.45-0.05,0.91-0.09,1.66L246.96,211.77z"/>
<path class="st0" d="M29.76,241.36c1.1-4.42,2.12-8.55,3.15-12.69c0.6-2.41,1.29-4.8,1.79-7.23c0.29-1.45,0.83-1.81,2.34-1.53
	c8.41,1.58,16.87,1.97,25.33,0.48c5.26-0.93,10.36-2.52,13.93-6.71c2.52-2.97,4.69-6.31,6.57-9.74c4.6-8.35,7.13-17.39,8.12-26.86
	c0.08-0.75,0.17-1.49,0.27-2.24c0.01-0.11,0.09-0.21,0.11-0.24h22.62c0.05,0.76,0.14,1.26,0.1,1.75
	c-1.5,17.89-6.99,34.36-17.74,48.87c-6.33,8.55-15.09,13.45-25.21,16.08c-11.43,2.97-22.99,2.76-34.59,1.16
	c-2.21-0.3-4.4-0.73-6.79-1.13L29.76,241.36z"/>
<path class="st0" d="M147.14,174.33c3.12,0,6.24,0.08,9.36-0.03c1.47-0.05,1.95,0.34,2.08,1.87c0.93,10.75,4.31,20.69,9.38,30.23
	c5.56,10.45,14.54,14.25,25.63,14.78c6.44,0.31,12.83-0.05,19.16-1.27c1.3-0.25,1.82,0,2.14,1.34c1.47,6.19,3.03,12.35,4.6,18.51
	c0.25,0.98,0.28,1.63-0.97,1.86c-12.62,2.27-25.26,3-37.89,0.23c-13.21-2.9-23.59-9.79-30.79-21.48
	c-8.27-13.42-12.9-27.93-14.28-43.57c-0.13-1.52,0.16-2.2,1.88-2.13c3.23,0.12,6.47,0.04,9.7,0.04v-0.36L147.14,174.33z"/>
<path class="st0" d="M95.52,131.08c-6.69,0-12-5.14-11.96-11.57c0.03-6.43,5.42-11.61,12.02-11.56c6.53,0.04,11.85,5.19,11.93,11.53
	C107.59,125.85,102.18,131.09,95.52,131.08z"/>
<path class="st0" d="M154.12,131.08c-6.71-0.02-11.98-5.14-11.92-11.6c0.05-6.47,5.37-11.58,12.02-11.55
	c6.5,0.04,11.88,5.26,11.9,11.55C166.14,125.88,160.75,131.09,154.12,131.08L154.12,131.08z"/>
</svg>
